<svg width="1200" height="40" viewBox="0 0 1200 40" fill="none" xmlns="http://www.w3.org/2000/svg">
<g clip-path="url(#clip0_1_1621)">
<path d="M1200 0H0V40H1200V0Z" fill="url(#paint0_linear_1_1621)"/>
<path d="M1206.34 17.5678C1205.07 17.5038 1204.13 17.4665 1203.53 17.4558V22.9278C1204.15 22.9171 1205.08 22.8798 1206.34 22.8158V25.9998H1197.05V22.8158C1198.27 22.8798 1199.21 22.9171 1199.85 22.9278V17.4558C1199.21 17.4665 1198.27 17.5038 1197.05 17.5678V14.3838H1206.34V17.5678Z" fill="white"/>
<path d="M1195.77 14.3999C1195.69 16.2026 1195.66 18.1332 1195.66 20.1919C1195.66 22.2612 1195.69 24.1972 1195.77 25.9999H1190.04L1186.17 17.2639L1186.46 25.9999H1182.34C1182.43 23.9306 1182.47 21.9946 1182.47 20.1919C1182.47 18.3999 1182.43 16.4692 1182.34 14.3999H1188.23L1192.12 23.3759L1191.85 14.3999H1195.77Z" fill="white"/>
<path d="M1173.93 26.1599C1171.49 26.1599 1169.69 25.6319 1168.54 24.5759C1167.39 23.5092 1166.81 22.0159 1166.81 20.0959C1166.81 18.1972 1167.38 16.7145 1168.52 15.6479C1169.68 14.5812 1171.48 14.0479 1173.93 14.0479C1176.4 14.0479 1178.2 14.5812 1179.34 15.6479C1180.49 16.7145 1181.07 18.1972 1181.07 20.0959C1181.07 22.0265 1180.5 23.5199 1179.36 24.5759C1178.21 25.6319 1176.41 26.1599 1173.93 26.1599ZM1173.93 22.8959C1175.12 22.8959 1175.97 22.6719 1176.49 22.2239C1177.01 21.7652 1177.28 21.0559 1177.28 20.0959C1177.28 19.1572 1177.01 18.4585 1176.49 17.9999C1175.97 17.5412 1175.12 17.3119 1173.93 17.3119C1172.76 17.3119 1171.91 17.5412 1171.39 17.9999C1170.87 18.4585 1170.6 19.1572 1170.6 20.0959C1170.6 21.0452 1170.87 21.7492 1171.39 22.2079C1171.91 22.6665 1172.76 22.8959 1173.93 22.8959Z" fill="white"/>
<path d="M1165.53 17.5678C1164.26 17.5038 1163.32 17.4665 1162.71 17.4558V22.9278C1163.33 22.9171 1164.27 22.8798 1165.53 22.8158V25.9998H1156.23V22.8158C1157.46 22.8798 1158.39 22.9171 1159.03 22.9278V17.4558C1158.39 17.4665 1157.46 17.5038 1156.23 17.5678V14.3838H1165.53V17.5678Z" fill="white"/>
<path d="M1141.45 24.624C1141.82 24.08 1142.11 23.5733 1142.35 23.104C1142.59 22.6346 1142.83 22.0906 1143.05 21.472C1143.81 21.9093 1144.69 22.2506 1145.69 22.496C1146.7 22.7413 1147.63 22.864 1148.49 22.864C1149.38 22.864 1150 22.7893 1150.36 22.64C1150.73 22.48 1150.91 22.3093 1150.91 22.128C1150.91 21.4773 1149.92 21.152 1147.93 21.152C1145.76 21.152 1144.18 20.928 1143.2 20.48C1142.22 20.0213 1141.72 19.2853 1141.72 18.272C1141.72 16.832 1142.32 15.7706 1143.52 15.088C1144.71 14.4053 1146.26 14.064 1148.17 14.064C1149.28 14.064 1150.42 14.208 1151.58 14.496C1152.75 14.7733 1153.81 15.1573 1154.75 15.648C1154.44 16.352 1154.11 17.2106 1153.77 18.224C1153.71 18.4373 1153.66 18.5973 1153.61 18.704C1153.07 18.2666 1152.25 17.904 1151.15 17.616C1150.05 17.3173 1149.08 17.168 1148.24 17.168C1147.22 17.168 1146.54 17.2373 1146.19 17.376C1145.84 17.504 1145.66 17.696 1145.66 17.952C1145.66 18.208 1145.9 18.416 1146.38 18.576C1146.87 18.7253 1147.58 18.8 1148.49 18.8C1150.75 18.8 1152.4 19.0613 1153.42 19.584C1154.44 20.096 1154.96 20.8853 1154.96 21.952C1154.96 23.4453 1154.41 24.5226 1153.32 25.184C1152.24 25.8346 1150.59 26.16 1148.38 26.16C1147.2 26.16 1145.99 26.032 1144.76 25.776C1143.54 25.5093 1142.43 25.1253 1141.45 24.624Z" fill="white"/>
<path d="M1140.17 17.5678C1138.9 17.5038 1137.96 17.4665 1137.35 17.4558V22.9278C1137.97 22.9171 1138.91 22.8798 1140.17 22.8158V25.9998H1130.87V22.8158C1132.1 22.8798 1133.03 22.9171 1133.67 22.9278V17.4558C1133.03 17.4665 1132.1 17.5038 1130.87 17.5678V14.3838H1140.17V17.5678Z" fill="white"/>
<path d="M1130.02 14.3838L1128.97 16.8318C1128.04 18.9971 1127.31 20.7305 1126.77 22.0318C1126.24 23.3331 1125.75 24.6558 1125.3 25.9998H1120.52C1120.08 24.6771 1119.59 23.3705 1119.06 22.0798C1118.54 20.7785 1117.83 19.1145 1116.95 17.0878C1116.8 16.7465 1116.41 15.8451 1115.78 14.3838H1120.23C1120.55 15.4185 1121.02 16.7465 1121.65 18.3678C1122.21 19.7971 1122.66 21.0345 1123 22.0798C1123.22 21.3438 1123.49 20.5598 1123.8 19.7278C1124.12 18.8851 1124.31 18.3731 1124.37 18.1918C1124.99 16.5598 1125.45 15.2905 1125.73 14.3838H1130.02Z" fill="white"/>
<path d="M1099.13 14.3999C1099.05 16.2026 1099.01 18.1332 1099.01 20.1919C1099.01 22.2612 1099.05 24.1972 1099.13 25.9999H1093.4L1089.53 17.2639L1089.81 25.9999H1085.7C1085.79 23.9306 1085.83 21.9946 1085.83 20.1919C1085.83 18.3999 1085.79 16.4692 1085.7 14.3999H1091.59L1095.48 23.3759L1095.21 14.3999H1099.13Z" fill="white"/>
<path d="M1077.59 19.3759H1084.42V25.9999H1081.61L1081.27 23.1679C1080.95 24.1812 1080.38 24.9332 1079.56 25.4239C1078.74 25.9145 1077.74 26.1599 1076.55 26.1599C1075.47 26.1599 1074.51 25.9199 1073.67 25.4399C1072.84 24.9599 1072.18 24.2719 1071.7 23.3759C1071.23 22.4799 1071 21.4345 1071 20.2399C1071 18.3305 1071.57 16.8212 1072.71 15.7119C1073.85 14.6025 1075.63 14.0479 1078.04 14.0479C1079.42 14.0479 1080.63 14.2719 1081.67 14.7199C1082.73 15.1679 1083.62 15.8612 1084.36 16.7999C1083.88 17.0452 1082.94 17.5359 1081.54 18.2719L1081.14 18.4959C1080.73 18.0799 1080.24 17.7705 1079.69 17.5679C1079.13 17.3545 1078.55 17.2479 1077.93 17.2479C1076.9 17.2479 1076.14 17.5199 1075.64 18.0639C1075.14 18.5972 1074.89 19.2585 1074.89 20.0479C1074.89 20.9012 1075.15 21.5892 1075.69 22.1119C1076.23 22.6345 1077.06 22.8959 1078.17 22.8959C1078.65 22.8959 1079.11 22.8265 1079.56 22.6879C1080.02 22.5492 1080.4 22.3092 1080.71 21.9679H1077.59V19.3759Z" fill="white"/>
<path d="M1069.72 17.5678C1068.45 17.5038 1067.51 17.4665 1066.9 17.4558V22.9278C1067.52 22.9171 1068.46 22.8798 1069.72 22.8158V25.9998H1060.42V22.8158C1061.65 22.8798 1062.58 22.9171 1063.22 22.9278V17.4558C1062.58 17.4665 1061.65 17.5038 1060.42 17.5678V14.3838H1069.72V17.5678Z" fill="white"/>
<path d="M1045.64 24.624C1046 24.08 1046.3 23.5733 1046.54 23.104C1046.78 22.6346 1047.02 22.0906 1047.24 21.472C1048 21.9093 1048.88 22.2506 1049.88 22.496C1050.88 22.7413 1051.82 22.864 1052.68 22.864C1053.57 22.864 1054.19 22.7893 1054.55 22.64C1054.91 22.48 1055.1 22.3093 1055.1 22.128C1055.1 21.4773 1054.1 21.152 1052.12 21.152C1049.94 21.152 1048.37 20.928 1047.38 20.48C1046.4 20.0213 1045.91 19.2853 1045.91 18.272C1045.91 16.832 1046.51 15.7706 1047.7 15.088C1048.9 14.4053 1050.45 14.064 1052.36 14.064C1053.47 14.064 1054.61 14.208 1055.77 14.496C1056.94 14.7733 1058 15.1573 1058.94 15.648C1058.63 16.352 1058.3 17.2106 1057.96 18.224C1057.9 18.4373 1057.84 18.5973 1057.8 18.704C1057.26 18.2666 1056.43 17.904 1055.34 17.616C1054.24 17.3173 1053.27 17.168 1052.42 17.168C1051.41 17.168 1050.73 17.2373 1050.38 17.376C1050.02 17.504 1049.85 17.696 1049.85 17.952C1049.85 18.208 1050.09 18.416 1050.57 18.576C1051.06 18.7253 1051.76 18.8 1052.68 18.8C1054.94 18.8 1056.58 19.0613 1057.61 19.584C1058.63 20.096 1059.14 20.8853 1059.14 21.952C1059.14 23.4453 1058.6 24.5226 1057.51 25.184C1056.42 25.8346 1054.78 26.16 1052.57 26.16C1051.38 26.16 1050.18 26.032 1048.95 25.776C1047.73 25.5093 1046.62 25.1253 1045.64 24.624Z" fill="white"/>
<path d="M1035.54 23.0718C1039.59 23.0505 1042.53 22.9918 1044.36 22.8958C1044.28 23.3331 1044.23 23.7865 1044.21 24.2558C1044.2 24.7145 1044.2 25.2958 1044.2 25.9998H1031.77C1031.85 23.9305 1031.89 21.9945 1031.89 20.1918C1031.89 18.3891 1031.85 16.4531 1031.77 14.3838H1044.2V17.2798H1035.54V18.8158C1036.05 18.8265 1036.81 18.8318 1037.81 18.8318C1039.51 18.8318 1041.26 18.7998 1043.08 18.7358V21.4878C1041.26 21.4238 1039.51 21.3918 1037.81 21.3918C1036.81 21.3918 1036.05 21.3971 1035.54 21.4078V23.0718Z" fill="white"/>
<path d="M1022.6 14.208C1024.61 14.208 1026.19 14.4533 1027.36 14.944C1028.52 15.424 1029.33 16.096 1029.79 16.96C1030.26 17.8133 1030.49 18.864 1030.49 20.112C1030.49 21.296 1030.23 22.3307 1029.69 23.216C1029.16 24.1013 1028.36 24.7893 1027.29 25.28C1026.23 25.76 1024.91 26 1023.36 26C1022.41 26 1021.44 26 1020.46 26C1019.48 26 1018.49 25.9947 1017.48 25.984C1017.57 23.8827 1017.61 21.9253 1017.61 20.112C1017.61 18.2773 1017.57 16.3627 1017.48 14.368C1018.75 14.2613 1020.46 14.208 1022.6 14.208ZM1023.8 22.816C1024.8 22.816 1025.46 22.576 1025.79 22.096C1026.12 21.616 1026.28 20.9547 1026.28 20.112C1026.28 19.3013 1026.11 18.6453 1025.76 18.144C1025.41 17.6427 1024.76 17.392 1023.8 17.392C1022.77 17.392 1022 17.424 1021.48 17.488V22.816H1023.8Z" fill="white"/>
<path d="M1012.99 17.7438C1011.32 17.6905 1009.69 17.6585 1008.11 17.6478V25.9998H1004.11V17.6478C1002.52 17.6585 1000.9 17.6905 999.25 17.7438V14.3838H1012.99V17.7438Z" fill="white"/>
<path d="M985.109 24.624C985.472 24.08 985.77 23.5733 986.005 23.104C986.25 22.6346 986.485 22.0906 986.709 21.472C987.466 21.9093 988.346 22.2506 989.349 22.496C990.352 22.7413 991.285 22.864 992.149 22.864C993.034 22.864 993.658 22.7893 994.021 22.64C994.384 22.48 994.565 22.3093 994.565 22.128C994.565 21.4773 993.573 21.152 991.589 21.152C989.413 21.152 987.834 20.928 986.853 20.48C985.872 20.0213 985.381 19.2853 985.381 18.272C985.381 16.832 985.978 15.7706 987.173 15.088C988.368 14.4053 989.92 14.064 991.829 14.064C992.938 14.064 994.074 14.208 995.237 14.496C996.41 14.7733 997.466 15.1573 998.405 15.648C998.096 16.352 997.77 17.2106 997.429 18.224C997.365 18.4373 997.312 18.5973 997.269 18.704C996.725 18.2666 995.904 17.904 994.805 17.616C993.706 17.3173 992.736 17.168 991.893 17.168C990.88 17.168 990.197 17.2373 989.845 17.376C989.493 17.504 989.317 17.696 989.317 17.952C989.317 18.208 989.557 18.416 990.037 18.576C990.528 18.7253 991.232 18.8 992.149 18.8C994.41 18.8 996.053 19.0613 997.077 19.584C998.101 20.096 998.613 20.8853 998.613 21.952C998.613 23.4453 998.069 24.5226 996.981 25.184C995.893 25.8346 994.245 26.16 992.037 26.16C990.853 26.16 989.648 26.032 988.421 25.776C987.194 25.5093 986.09 25.1253 985.109 24.624Z" fill="white"/>
<path d="M983.827 17.5678C982.557 17.5038 981.619 17.4665 981.011 17.4558V22.9278C981.629 22.9171 982.568 22.8798 983.827 22.8158V25.9998H974.531V22.8158C975.757 22.8798 976.691 22.9171 977.331 22.9278V17.4558C976.691 17.4665 975.757 17.5038 974.531 17.5678V14.3838H983.827V17.5678Z" fill="white"/>
<path d="M973.252 14.3999C973.177 16.2026 973.14 18.1332 973.14 20.1919C973.14 22.2612 973.177 24.1972 973.252 25.9999H967.524L963.652 17.2639L963.94 25.9999H959.828C959.913 23.9306 959.956 21.9946 959.956 20.1919C959.956 18.3999 959.913 16.4692 959.828 14.3999H965.716L969.604 23.3759L969.332 14.3999H973.252Z" fill="white"/>
<path d="M951.416 26.1599C948.974 26.1599 947.176 25.6319 946.024 24.5759C944.872 23.5092 944.296 22.0159 944.296 20.0959C944.296 18.1972 944.867 16.7145 946.008 15.6479C947.16 14.5812 948.963 14.0479 951.416 14.0479C953.88 14.0479 955.683 14.5812 956.824 15.6479C957.976 16.7145 958.552 18.1972 958.552 20.0959C958.552 22.0265 957.982 23.5199 956.84 24.5759C955.699 25.6319 953.891 26.1599 951.416 26.1599ZM951.416 22.8959C952.6 22.8959 953.454 22.6719 953.976 22.2239C954.499 21.7652 954.76 21.0559 954.76 20.0959C954.76 19.1572 954.499 18.4585 953.976 17.9999C953.454 17.5412 952.6 17.3119 951.416 17.3119C950.243 17.3119 949.395 17.5412 948.872 17.9999C948.35 18.4585 948.088 19.1572 948.088 20.0959C948.088 21.0452 948.35 21.7492 948.872 22.2079C949.395 22.6665 950.243 22.8959 951.416 22.8959Z" fill="white"/>
<path d="M943.014 17.5678C941.745 17.5038 940.806 17.4665 940.198 17.4558V22.9278C940.817 22.9171 941.756 22.8798 943.014 22.8158V25.9998H933.718V22.8158C934.945 22.8798 935.878 22.9171 936.518 22.9278V17.4558C935.878 17.4665 934.945 17.5038 933.718 17.5678V14.3838H943.014V17.5678Z" fill="white"/>
<path d="M918.937 24.624C919.3 24.08 919.598 23.5733 919.833 23.104C920.078 22.6346 920.313 22.0906 920.537 21.472C921.294 21.9093 922.174 22.2506 923.177 22.496C924.18 22.7413 925.113 22.864 925.977 22.864C926.862 22.864 927.486 22.7893 927.849 22.64C928.212 22.48 928.393 22.3093 928.393 22.128C928.393 21.4773 927.401 21.152 925.417 21.152C923.241 21.152 921.662 20.928 920.681 20.48C919.7 20.0213 919.209 19.2853 919.209 18.272C919.209 16.832 919.806 15.7706 921.001 15.088C922.196 14.4053 923.748 14.064 925.657 14.064C926.766 14.064 927.902 14.208 929.065 14.496C930.238 14.7733 931.294 15.1573 932.233 15.648C931.924 16.352 931.598 17.2106 931.257 18.224C931.193 18.4373 931.14 18.5973 931.097 18.704C930.553 18.2666 929.732 17.904 928.633 17.616C927.534 17.3173 926.564 17.168 925.721 17.168C924.708 17.168 924.025 17.2373 923.673 17.376C923.321 17.504 923.145 17.696 923.145 17.952C923.145 18.208 923.385 18.416 923.865 18.576C924.356 18.7253 925.06 18.8 925.977 18.8C928.238 18.8 929.881 19.0613 930.905 19.584C931.929 20.096 932.441 20.8853 932.441 21.952C932.441 23.4453 931.897 24.5226 930.809 25.184C929.721 25.8346 928.073 26.16 925.865 26.16C924.681 26.16 923.476 26.032 922.249 25.776C921.022 25.5093 919.918 25.1253 918.937 24.624Z" fill="white"/>
<path d="M917.655 17.5678C916.386 17.5038 915.447 17.4665 914.839 17.4558V22.9278C915.458 22.9171 916.396 22.8798 917.655 22.8158V25.9998H908.359V22.8158C909.586 22.8798 910.519 22.9171 911.159 22.9278V17.4558C910.519 17.4665 909.586 17.5038 908.359 17.5678V14.3838H917.655V17.5678Z" fill="white"/>
<path d="M907.506 14.3838L906.45 16.8318C905.522 18.9971 904.791 20.7305 904.258 22.0318C903.724 23.3331 903.234 24.6558 902.786 25.9998H898.002C897.564 24.6771 897.079 23.3705 896.546 22.0798C896.023 20.7785 895.319 19.1145 894.434 17.0878C894.284 16.7465 893.895 15.8451 893.266 14.3838H897.714C898.034 15.4185 898.508 16.7465 899.138 18.3678C899.692 19.7971 900.14 21.0345 900.482 22.0798C900.706 21.3438 900.972 20.5598 901.282 19.7278C901.602 18.8851 901.794 18.3731 901.858 18.1918C902.476 16.5598 902.93 15.2905 903.218 14.3838H907.506Z" fill="white"/>
<path d="M873.408 14.3999C873.333 16.2026 873.296 18.1332 873.296 20.1919C873.296 22.2612 873.333 24.1972 873.408 25.9999H867.68L863.808 17.2639L864.096 25.9999H859.984C860.069 23.9306 860.112 21.9946 860.112 20.1919C860.112 18.3999 860.069 16.4692 859.984 14.3999H865.872L869.76 23.3759L869.488 14.3999H873.408Z" fill="white"/>
<path d="M851.873 19.3759H858.705V25.9999H855.889L855.553 23.1679C855.233 24.1812 854.662 24.9332 853.841 25.4239C853.019 25.9145 852.017 26.1599 850.833 26.1599C849.755 26.1599 848.795 25.9199 847.953 25.4399C847.121 24.9599 846.465 24.2719 845.985 23.3759C845.515 22.4799 845.281 21.4345 845.281 20.2399C845.281 18.3305 845.851 16.8212 846.993 15.7119C848.134 14.6025 849.91 14.0479 852.321 14.0479C853.697 14.0479 854.907 14.2719 855.953 14.7199C857.009 15.1679 857.905 15.8612 858.641 16.7999C858.161 17.0452 857.222 17.5359 855.825 18.2719L855.425 18.4959C855.009 18.0799 854.523 17.7705 853.969 17.5679C853.414 17.3545 852.827 17.2479 852.209 17.2479C851.185 17.2479 850.422 17.5199 849.921 18.0639C849.419 18.5972 849.169 19.2585 849.169 20.0479C849.169 20.9012 849.435 21.5892 849.969 22.1119C850.513 22.6345 851.339 22.8959 852.449 22.8959C852.929 22.8959 853.393 22.8265 853.841 22.6879C854.299 22.5492 854.683 22.3092 854.993 21.9679H851.873V19.3759Z" fill="white"/>
<path d="M843.999 17.5678C842.729 17.5038 841.791 17.4665 841.183 17.4558V22.9278C841.801 22.9171 842.74 22.8798 843.999 22.8158V25.9998H834.703V22.8158C835.929 22.8798 836.863 22.9171 837.503 22.9278V17.4558C836.863 17.4665 835.929 17.5038 834.703 17.5678V14.3838H843.999V17.5678Z" fill="white"/>
<path d="M819.921 24.624C820.284 24.08 820.583 23.5733 820.817 23.104C821.063 22.6346 821.297 22.0906 821.521 21.472C822.279 21.9093 823.159 22.2506 824.161 22.496C825.164 22.7413 826.097 22.864 826.961 22.864C827.847 22.864 828.471 22.7893 828.833 22.64C829.196 22.48 829.377 22.3093 829.377 22.128C829.377 21.4773 828.385 21.152 826.401 21.152C824.225 21.152 822.647 20.928 821.665 20.48C820.684 20.0213 820.193 19.2853 820.193 18.272C820.193 16.832 820.791 15.7706 821.985 15.088C823.18 14.4053 824.732 14.064 826.641 14.064C827.751 14.064 828.887 14.208 830.049 14.496C831.223 14.7733 832.279 15.1573 833.217 15.648C832.908 16.352 832.583 17.2106 832.241 18.224C832.177 18.4373 832.124 18.5973 832.081 18.704C831.537 18.2666 830.716 17.904 829.617 17.616C828.519 17.3173 827.548 17.168 826.705 17.168C825.692 17.168 825.009 17.2373 824.657 17.376C824.305 17.504 824.129 17.696 824.129 17.952C824.129 18.208 824.369 18.416 824.849 18.576C825.34 18.7253 826.044 18.8 826.961 18.8C829.223 18.8 830.865 19.0613 831.889 19.584C832.913 20.096 833.425 20.8853 833.425 21.952C833.425 23.4453 832.881 24.5226 831.793 25.184C830.705 25.8346 829.057 26.16 826.849 26.16C825.665 26.16 824.46 26.032 823.233 25.776C822.007 25.5093 820.903 25.1253 819.921 24.624Z" fill="white"/>
<path d="M809.822 23.0718C813.876 23.0505 816.814 22.9918 818.638 22.8958C818.564 23.3331 818.516 23.7865 818.494 24.2558C818.484 24.7145 818.478 25.2958 818.478 25.9998H806.046C806.132 23.9305 806.174 21.9945 806.174 20.1918C806.174 18.3891 806.132 16.4531 806.046 14.3838H818.478V17.2798H809.822V18.8158C810.334 18.8265 811.092 18.8318 812.094 18.8318C813.79 18.8318 815.545 18.7998 817.358 18.7358V21.4878C815.545 21.4238 813.79 21.3918 812.094 21.3918C811.092 21.3918 810.334 21.3971 809.822 21.4078V23.0718Z" fill="white"/>
<path d="M796.885 14.208C798.89 14.208 800.474 14.4533 801.637 14.944C802.8 15.424 803.61 16.096 804.069 16.96C804.538 17.8133 804.773 18.864 804.773 20.112C804.773 21.296 804.506 22.3307 803.973 23.216C803.44 24.1013 802.64 24.7893 801.573 25.28C800.506 25.76 799.194 26 797.637 26C796.688 26 795.722 26 794.741 26C793.76 26 792.768 25.9947 791.765 25.984C791.85 23.8827 791.893 21.9253 791.893 20.112C791.893 18.2773 791.85 16.3627 791.765 14.368C793.034 14.2613 794.741 14.208 796.885 14.208ZM798.085 22.816C799.077 22.816 799.738 22.576 800.069 22.096C800.4 21.616 800.565 20.9547 800.565 20.112C800.565 19.3013 800.389 18.6453 800.037 18.144C799.696 17.6427 799.045 17.392 798.085 17.392C797.05 17.392 796.277 17.424 795.765 17.488V22.816H798.085Z" fill="white"/>
<path d="M787.275 17.7438C785.6 17.6905 783.973 17.6585 782.395 17.6478V25.9998H778.395V17.6478C776.805 17.6585 775.184 17.6905 773.531 17.7438V14.3838H787.275V17.7438Z" fill="white"/>
<path d="M759.39 24.624C759.753 24.08 760.051 23.5733 760.286 23.104C760.531 22.6346 760.766 22.0906 760.99 21.472C761.747 21.9093 762.627 22.2506 763.63 22.496C764.633 22.7413 765.566 22.864 766.43 22.864C767.315 22.864 767.939 22.7893 768.302 22.64C768.665 22.48 768.846 22.3093 768.846 22.128C768.846 21.4773 767.854 21.152 765.87 21.152C763.694 21.152 762.115 20.928 761.134 20.48C760.153 20.0213 759.662 19.2853 759.662 18.272C759.662 16.832 760.259 15.7706 761.454 15.088C762.649 14.4053 764.201 14.064 766.11 14.064C767.219 14.064 768.355 14.208 769.518 14.496C770.691 14.7733 771.747 15.1573 772.686 15.648C772.377 16.352 772.051 17.2106 771.71 18.224C771.646 18.4373 771.593 18.5973 771.55 18.704C771.006 18.2666 770.185 17.904 769.086 17.616C767.987 17.3173 767.017 17.168 766.174 17.168C765.161 17.168 764.478 17.2373 764.126 17.376C763.774 17.504 763.598 17.696 763.598 17.952C763.598 18.208 763.838 18.416 764.318 18.576C764.809 18.7253 765.513 18.8 766.43 18.8C768.691 18.8 770.334 19.0613 771.358 19.584C772.382 20.096 772.894 20.8853 772.894 21.952C772.894 23.4453 772.35 24.5226 771.262 25.184C770.174 25.8346 768.526 26.16 766.318 26.16C765.134 26.16 763.929 26.032 762.702 25.776C761.475 25.5093 760.371 25.1253 759.39 24.624Z" fill="white"/>
<path d="M758.108 17.5678C756.839 17.5038 755.9 17.4665 755.292 17.4558V22.9278C755.911 22.9171 756.849 22.8798 758.108 22.8158V25.9998H748.812V22.8158C750.039 22.8798 750.972 22.9171 751.612 22.9278V17.4558C750.972 17.4665 750.039 17.5038 748.812 17.5678V14.3838H758.108V17.5678Z" fill="white"/>
<path d="M747.533 14.3999C747.458 16.2026 747.421 18.1332 747.421 20.1919C747.421 22.2612 747.458 24.1972 747.533 25.9999H741.805L737.933 17.2639L738.221 25.9999H734.109C734.194 23.9306 734.237 21.9946 734.237 20.1919C734.237 18.3999 734.194 16.4692 734.109 14.3999H739.997L743.885 23.3759L743.613 14.3999H747.533Z" fill="white"/>
<path d="M725.698 26.1599C723.255 26.1599 721.458 25.6319 720.306 24.5759C719.154 23.5092 718.578 22.0159 718.578 20.0959C718.578 18.1972 719.148 16.7145 720.29 15.6479C721.442 14.5812 723.244 14.0479 725.698 14.0479C728.162 14.0479 729.964 14.5812 731.106 15.6479C732.258 16.7145 732.834 18.1972 732.834 20.0959C732.834 22.0265 732.263 23.5199 731.122 24.5759C729.98 25.6319 728.172 26.1599 725.698 26.1599ZM725.698 22.8959C726.882 22.8959 727.735 22.6719 728.258 22.2239C728.78 21.7652 729.042 21.0559 729.042 20.0959C729.042 19.1572 728.78 18.4585 728.258 17.9999C727.735 17.5412 726.882 17.3119 725.698 17.3119C724.524 17.3119 723.676 17.5412 723.154 17.9999C722.631 18.4585 722.37 19.1572 722.37 20.0959C722.37 21.0452 722.631 21.7492 723.154 22.2079C723.676 22.6665 724.524 22.8959 725.698 22.8959Z" fill="white"/>
<path d="M717.295 17.5678C716.026 17.5038 715.087 17.4665 714.479 17.4558V22.9278C715.098 22.9171 716.037 22.8798 717.295 22.8158V25.9998H708V22.8158C709.226 22.8798 710.159 22.9171 710.799 22.9278V17.4558C710.159 17.4665 709.226 17.5038 708 17.5678V14.3838H717.295V17.5678Z" fill="white"/>
<path d="M693.218 24.624C693.581 24.08 693.88 23.5733 694.114 23.104C694.36 22.6346 694.594 22.0906 694.818 21.472C695.576 21.9093 696.456 22.2506 697.458 22.496C698.461 22.7413 699.394 22.864 700.258 22.864C701.144 22.864 701.768 22.7893 702.13 22.64C702.493 22.48 702.674 22.3093 702.674 22.128C702.674 21.4773 701.682 21.152 699.698 21.152C697.522 21.152 695.944 20.928 694.962 20.48C693.981 20.0213 693.49 19.2853 693.49 18.272C693.49 16.832 694.088 15.7706 695.282 15.088C696.477 14.4053 698.029 14.064 699.938 14.064C701.048 14.064 702.184 14.208 703.346 14.496C704.52 14.7733 705.576 15.1573 706.514 15.648C706.205 16.352 705.88 17.2106 705.538 18.224C705.474 18.4373 705.421 18.5973 705.378 18.704C704.834 18.2666 704.013 17.904 702.914 17.616C701.816 17.3173 700.845 17.168 700.002 17.168C698.989 17.168 698.306 17.2373 697.954 17.376C697.602 17.504 697.426 17.696 697.426 17.952C697.426 18.208 697.666 18.416 698.146 18.576C698.637 18.7253 699.341 18.8 700.258 18.8C702.52 18.8 704.162 19.0613 705.186 19.584C706.21 20.096 706.722 20.8853 706.722 21.952C706.722 23.4453 706.178 24.5226 705.09 25.184C704.002 25.8346 702.354 26.16 700.146 26.16C698.962 26.16 697.757 26.032 696.53 25.776C695.304 25.5093 694.2 25.1253 693.218 24.624Z" fill="white"/>
<path d="M691.936 17.5678C690.667 17.5038 689.728 17.4665 689.12 17.4558V22.9278C689.739 22.9171 690.677 22.8798 691.936 22.8158V25.9998H682.64V22.8158C683.867 22.8798 684.8 22.9171 685.44 22.9278V17.4558C684.8 17.4665 683.867 17.5038 682.64 17.5678V14.3838H691.936V17.5678Z" fill="white"/>
<path d="M681.787 14.3838L680.731 16.8318C679.803 18.9971 679.072 20.7305 678.539 22.0318C678.006 23.3331 677.515 24.6558 677.067 25.9998H672.283C671.846 24.6771 671.36 23.3705 670.827 22.0798C670.304 20.7785 669.6 19.1145 668.715 17.0878C668.566 16.7465 668.176 15.8451 667.547 14.3838H671.995C672.315 15.4185 672.79 16.7465 673.419 18.3678C673.974 19.7971 674.422 21.0345 674.763 22.0798C674.987 21.3438 675.254 20.5598 675.563 19.7278C675.883 18.8851 676.075 18.3731 676.139 18.1918C676.758 16.5598 677.211 15.2905 677.499 14.3838H681.787Z" fill="white"/>
<path d="M650.892 14.3999C650.818 16.2026 650.78 18.1332 650.78 20.1919C650.78 22.2612 650.818 24.1972 650.892 25.9999H645.164L641.292 17.2639L641.58 25.9999H637.468C637.554 23.9306 637.596 21.9946 637.596 20.1919C637.596 18.3999 637.554 16.4692 637.468 14.3999H643.356L647.244 23.3759L646.972 14.3999H650.892Z" fill="white"/>
<path d="M629.357 19.3759H636.189V25.9999H633.373L633.037 23.1679C632.717 24.1812 632.146 24.9332 631.325 25.4239C630.504 25.9145 629.501 26.1599 628.317 26.1599C627.24 26.1599 626.28 25.9199 625.437 25.4399C624.605 24.9599 623.949 24.2719 623.469 23.3759C623 22.4799 622.765 21.4345 622.765 20.2399C622.765 18.3305 623.336 16.8212 624.477 15.7119C625.618 14.6025 627.394 14.0479 629.805 14.0479C631.181 14.0479 632.392 14.2719 633.437 14.7199C634.493 15.1679 635.389 15.8612 636.125 16.7999C635.645 17.0452 634.706 17.5359 633.309 18.2719L632.909 18.4959C632.493 18.0799 632.008 17.7705 631.453 17.5679C630.898 17.3545 630.312 17.2479 629.693 17.2479C628.669 17.2479 627.906 17.5199 627.405 18.0639C626.904 18.5972 626.653 19.2585 626.653 20.0479C626.653 20.9012 626.92 21.5892 627.453 22.1119C627.997 22.6345 628.824 22.8959 629.933 22.8959C630.413 22.8959 630.877 22.8265 631.325 22.6879C631.784 22.5492 632.168 22.3092 632.477 21.9679H629.357V19.3759Z" fill="white"/>
<path d="M621.483 17.5678C620.214 17.5038 619.275 17.4665 618.667 17.4558V22.9278C619.286 22.9171 620.224 22.8798 621.483 22.8158V25.9998H612.187V22.8158C613.414 22.8798 614.347 22.9171 614.987 22.9278V17.4558C614.347 17.4665 613.414 17.5038 612.187 17.5678V14.3838H621.483V17.5678Z" fill="white"/>
<path d="M597.406 24.624C597.768 24.08 598.067 23.5733 598.302 23.104C598.547 22.6346 598.782 22.0906 599.006 21.472C599.763 21.9093 600.643 22.2506 601.646 22.496C602.648 22.7413 603.582 22.864 604.446 22.864C605.331 22.864 605.955 22.7893 606.318 22.64C606.68 22.48 606.862 22.3093 606.862 22.128C606.862 21.4773 605.87 21.152 603.886 21.152C601.71 21.152 600.131 20.928 599.15 20.48C598.168 20.0213 597.678 19.2853 597.678 18.272C597.678 16.832 598.275 15.7706 599.47 15.088C600.664 14.4053 602.216 14.064 604.126 14.064C605.235 14.064 606.371 14.208 607.534 14.496C608.707 14.7733 609.763 15.1573 610.702 15.648C610.392 16.352 610.067 17.2106 609.726 18.224C609.662 18.4373 609.608 18.5973 609.566 18.704C609.022 18.2666 608.2 17.904 607.102 17.616C606.003 17.3173 605.032 17.168 604.19 17.168C603.176 17.168 602.494 17.2373 602.142 17.376C601.79 17.504 601.614 17.696 601.614 17.952C601.614 18.208 601.854 18.416 602.334 18.576C602.824 18.7253 603.528 18.8 604.446 18.8C606.707 18.8 608.35 19.0613 609.374 19.584C610.398 20.096 610.91 20.8853 610.91 21.952C610.91 23.4453 610.366 24.5226 609.278 25.184C608.19 25.8346 606.542 26.16 604.334 26.16C603.15 26.16 601.944 26.032 600.718 25.776C599.491 25.5093 598.387 25.1253 597.406 24.624Z" fill="white"/>
<path d="M587.307 23.0718C591.36 23.0505 594.299 22.9918 596.123 22.8958C596.048 23.3331 596 23.7865 595.979 24.2558C595.968 24.7145 595.963 25.2958 595.963 25.9998H583.531C583.616 23.9305 583.659 21.9945 583.659 20.1918C583.659 18.3891 583.616 16.4531 583.531 14.3838H595.963V17.2798H587.307V18.8158C587.819 18.8265 588.576 18.8318 589.579 18.8318C591.275 18.8318 593.029 18.7998 594.843 18.7358V21.4878C593.029 21.4238 591.275 21.3918 589.579 21.3918C588.576 21.3918 587.819 21.3971 587.307 21.4078V23.0718Z" fill="white"/>
<path d="M574.37 14.208C576.375 14.208 577.959 14.4533 579.122 14.944C580.284 15.424 581.095 16.096 581.553 16.96C582.023 17.8133 582.258 18.864 582.258 20.112C582.258 21.296 581.991 22.3307 581.458 23.216C580.924 24.1013 580.124 24.7893 579.057 25.28C577.991 25.76 576.679 26 575.122 26C574.172 26 573.207 26 572.226 26C571.244 26 570.252 25.9947 569.25 25.984C569.335 23.8827 569.378 21.9253 569.378 20.112C569.378 18.2773 569.335 16.3627 569.25 14.368C570.519 14.2613 572.226 14.208 574.37 14.208ZM575.57 22.816C576.562 22.816 577.223 22.576 577.553 22.096C577.884 21.616 578.049 20.9547 578.049 20.112C578.049 19.3013 577.873 18.6453 577.521 18.144C577.18 17.6427 576.53 17.392 575.57 17.392C574.535 17.392 573.762 17.424 573.25 17.488V22.816H575.57Z" fill="white"/>
<path d="M564.759 17.7438C563.084 17.6905 561.458 17.6585 559.879 17.6478V25.9998H555.879V17.6478C554.29 17.6585 552.668 17.6905 551.015 17.7438V14.3838H564.759V17.7438Z" fill="white"/>
<path d="M536.875 24.624C537.237 24.08 537.536 23.5733 537.771 23.104C538.016 22.6346 538.25 22.0906 538.474 21.472C539.232 21.9093 540.112 22.2506 541.115 22.496C542.117 22.7413 543.05 22.864 543.914 22.864C544.8 22.864 545.424 22.7893 545.786 22.64C546.149 22.48 546.331 22.3093 546.331 22.128C546.331 21.4773 545.338 21.152 543.354 21.152C541.178 21.152 539.6 20.928 538.618 20.48C537.637 20.0213 537.146 19.2853 537.146 18.272C537.146 16.832 537.744 15.7706 538.938 15.088C540.133 14.4053 541.685 14.064 543.594 14.064C544.704 14.064 545.84 14.208 547.003 14.496C548.176 14.7733 549.232 15.1573 550.17 15.648C549.861 16.352 549.536 17.2106 549.195 18.224C549.131 18.4373 549.077 18.5973 549.034 18.704C548.49 18.2666 547.669 17.904 546.57 17.616C545.472 17.3173 544.501 17.168 543.659 17.168C542.645 17.168 541.962 17.2373 541.61 17.376C541.258 17.504 541.083 17.696 541.083 17.952C541.083 18.208 541.322 18.416 541.802 18.576C542.293 18.7253 542.997 18.8 543.914 18.8C546.176 18.8 547.818 19.0613 548.842 19.584C549.866 20.096 550.378 20.8853 550.378 21.952C550.378 23.4453 549.835 24.5226 548.747 25.184C547.659 25.8346 546.01 26.16 543.802 26.16C542.618 26.16 541.413 26.032 540.187 25.776C538.96 25.5093 537.856 25.1253 536.875 24.624Z" fill="white"/>
<path d="M535.592 17.5678C534.323 17.5038 533.384 17.4665 532.776 17.4558V22.9278C533.395 22.9171 534.334 22.8798 535.592 22.8158V25.9998H526.296V22.8158C527.523 22.8798 528.456 22.9171 529.096 22.9278V17.4558C528.456 17.4665 527.523 17.5038 526.296 17.5678V14.3838H535.592V17.5678Z" fill="white"/>
<path d="M525.017 14.3999C524.943 16.2026 524.905 18.1332 524.905 20.1919C524.905 22.2612 524.943 24.1972 525.017 25.9999H519.289L515.417 17.2639L515.705 25.9999H511.593C511.679 23.9306 511.721 21.9946 511.721 20.1919C511.721 18.3999 511.679 16.4692 511.593 14.3999H517.481L521.369 23.3759L521.097 14.3999H525.017Z" fill="white"/>
<path d="M503.182 26.1599C500.739 26.1599 498.942 25.6319 497.79 24.5759C496.638 23.5092 496.062 22.0159 496.062 20.0959C496.062 18.1972 496.633 16.7145 497.774 15.6479C498.926 14.5812 500.729 14.0479 503.182 14.0479C505.646 14.0479 507.449 14.5812 508.59 15.6479C509.742 16.7145 510.318 18.1972 510.318 20.0959C510.318 22.0265 509.747 23.5199 508.606 24.5759C507.465 25.6319 505.657 26.1599 503.182 26.1599ZM503.182 22.8959C504.366 22.8959 505.219 22.6719 505.742 22.2239C506.265 21.7652 506.526 21.0559 506.526 20.0959C506.526 19.1572 506.265 18.4585 505.742 17.9999C505.219 17.5412 504.366 17.3119 503.182 17.3119C502.009 17.3119 501.161 17.5412 500.638 17.9999C500.115 18.4585 499.854 19.1572 499.854 20.0959C499.854 21.0452 500.115 21.7492 500.638 22.2079C501.161 22.6665 502.009 22.8959 503.182 22.8959Z" fill="white"/>
<path d="M494.78 17.5678C493.511 17.5038 492.572 17.4665 491.964 17.4558V22.9278C492.583 22.9171 493.521 22.8798 494.78 22.8158V25.9998H485.484V22.8158C486.711 22.8798 487.644 22.9171 488.284 22.9278V17.4558C487.644 17.4665 486.711 17.5038 485.484 17.5678V14.3838H494.78V17.5678Z" fill="white"/>
<path d="M470.703 24.624C471.065 24.08 471.364 23.5733 471.599 23.104C471.844 22.6346 472.079 22.0906 472.303 21.472C473.06 21.9093 473.94 22.2506 474.943 22.496C475.945 22.7413 476.879 22.864 477.743 22.864C478.628 22.864 479.252 22.7893 479.615 22.64C479.977 22.48 480.159 22.3093 480.159 22.128C480.159 21.4773 479.167 21.152 477.183 21.152C475.007 21.152 473.428 20.928 472.447 20.48C471.465 20.0213 470.975 19.2853 470.975 18.272C470.975 16.832 471.572 15.7706 472.767 15.088C473.961 14.4053 475.513 14.064 477.423 14.064C478.532 14.064 479.668 14.208 480.831 14.496C482.004 14.7733 483.06 15.1573 483.999 15.648C483.689 16.352 483.364 17.2106 483.023 18.224C482.959 18.4373 482.905 18.5973 482.863 18.704C482.319 18.2666 481.497 17.904 480.399 17.616C479.3 17.3173 478.329 17.168 477.487 17.168C476.473 17.168 475.791 17.2373 475.439 17.376C475.087 17.504 474.911 17.696 474.911 17.952C474.911 18.208 475.151 18.416 475.631 18.576C476.121 18.7253 476.825 18.8 477.743 18.8C480.004 18.8 481.647 19.0613 482.671 19.584C483.695 20.096 484.207 20.8853 484.207 21.952C484.207 23.4453 483.663 24.5226 482.575 25.184C481.487 25.8346 479.839 26.16 477.631 26.16C476.447 26.16 475.241 26.032 474.015 25.776C472.788 25.5093 471.684 25.1253 470.703 24.624Z" fill="white"/>
<path d="M469.421 17.5678C468.151 17.5038 467.212 17.4665 466.604 17.4558V22.9278C467.223 22.9171 468.162 22.8798 469.421 22.8158V25.9998H460.125V22.8158C461.351 22.8798 462.284 22.9171 462.924 22.9278V17.4558C462.284 17.4665 461.351 17.5038 460.125 17.5678V14.3838H469.421V17.5678Z" fill="white"/>
<path d="M459.271 14.3838L458.215 16.8318C457.287 18.9971 456.557 20.7305 456.023 22.0318C455.49 23.3331 454.999 24.6558 454.551 25.9998H449.767C449.33 24.6771 448.845 23.3705 448.311 22.0798C447.789 20.7785 447.085 19.1145 446.199 17.0878C446.05 16.7465 445.661 15.8451 445.031 14.3838H449.479C449.799 15.4185 450.274 16.7465 450.903 18.3678C451.458 19.7971 451.906 21.0345 452.247 22.0798C452.471 21.3438 452.738 20.5598 453.047 19.7278C453.367 18.8851 453.559 18.3731 453.623 18.1918C454.242 16.5598 454.695 15.2905 454.983 14.3838H459.271Z" fill="white"/>
<path d="M428.377 14.3999C428.302 16.2026 428.265 18.1332 428.265 20.1919C428.265 22.2612 428.302 24.1972 428.377 25.9999H422.649L418.777 17.2639L419.065 25.9999H414.953C415.038 23.9306 415.081 21.9946 415.081 20.1919C415.081 18.3999 415.038 16.4692 414.953 14.3999H420.841L424.729 23.3759L424.457 14.3999H428.377Z" fill="white"/>
<path d="M406.841 19.3759H413.673V25.9999H410.857L410.521 23.1679C410.201 24.1812 409.631 24.9332 408.81 25.4239C407.988 25.9145 406.985 26.1599 405.801 26.1599C404.724 26.1599 403.764 25.9199 402.922 25.4399C402.09 24.9599 401.433 24.2719 400.953 23.3759C400.484 22.4799 400.25 21.4345 400.25 20.2399C400.25 18.3305 400.82 16.8212 401.961 15.7119C403.103 14.6025 404.879 14.0479 407.289 14.0479C408.665 14.0479 409.876 14.2719 410.922 14.7199C411.978 15.1679 412.873 15.8612 413.609 16.7999C413.129 17.0452 412.191 17.5359 410.793 18.2719L410.393 18.4959C409.977 18.0799 409.492 17.7705 408.938 17.5679C408.383 17.3545 407.796 17.2479 407.177 17.2479C406.153 17.2479 405.391 17.5199 404.889 18.0639C404.388 18.5972 404.138 19.2585 404.138 20.0479C404.138 20.9012 404.404 21.5892 404.938 22.1119C405.482 22.6345 406.308 22.8959 407.418 22.8959C407.898 22.8959 408.362 22.8265 408.81 22.6879C409.268 22.5492 409.652 22.3092 409.961 21.9679H406.841V19.3759Z" fill="white"/>
<path d="M398.967 17.5678C397.698 17.5038 396.759 17.4665 396.151 17.4558V22.9278C396.77 22.9171 397.709 22.8798 398.967 22.8158V25.9998H389.671V22.8158C390.898 22.8798 391.831 22.9171 392.471 22.9278V17.4558C391.831 17.4665 390.898 17.5038 389.671 17.5678V14.3838H398.967V17.5678Z" fill="white"/>
<path d="M374.89 24.624C375.253 24.08 375.551 23.5733 375.786 23.104C376.031 22.6346 376.266 22.0906 376.49 21.472C377.247 21.9093 378.127 22.2506 379.13 22.496C380.133 22.7413 381.066 22.864 381.93 22.864C382.815 22.864 383.439 22.7893 383.802 22.64C384.165 22.48 384.346 22.3093 384.346 22.128C384.346 21.4773 383.354 21.152 381.37 21.152C379.194 21.152 377.615 20.928 376.634 20.48C375.653 20.0213 375.162 19.2853 375.162 18.272C375.162 16.832 375.759 15.7706 376.954 15.088C378.149 14.4053 379.701 14.064 381.61 14.064C382.719 14.064 383.855 14.208 385.018 14.496C386.191 14.7733 387.247 15.1573 388.186 15.648C387.877 16.352 387.551 17.2106 387.21 18.224C387.146 18.4373 387.093 18.5973 387.05 18.704C386.506 18.2666 385.685 17.904 384.586 17.616C383.487 17.3173 382.517 17.168 381.674 17.168C380.661 17.168 379.978 17.2373 379.626 17.376C379.274 17.504 379.098 17.696 379.098 17.952C379.098 18.208 379.338 18.416 379.818 18.576C380.309 18.7253 381.013 18.8 381.93 18.8C384.191 18.8 385.834 19.0613 386.858 19.584C387.882 20.096 388.394 20.8853 388.394 21.952C388.394 23.4453 387.85 24.5226 386.762 25.184C385.674 25.8346 384.026 26.16 381.818 26.16C380.634 26.16 379.429 26.032 378.202 25.776C376.975 25.5093 375.871 25.1253 374.89 24.624Z" fill="white"/>
<path d="M364.791 23.0718C368.844 23.0505 371.783 22.9918 373.607 22.8958C373.532 23.3331 373.484 23.7865 373.463 24.2558C373.452 24.7145 373.447 25.2958 373.447 25.9998H361.015C361.1 23.9305 361.143 21.9945 361.143 20.1918C361.143 18.3891 361.1 16.4531 361.015 14.3838H373.447V17.2798H364.791V18.8158C365.303 18.8265 366.06 18.8318 367.063 18.8318C368.759 18.8318 370.514 18.7998 372.327 18.7358V21.4878C370.514 21.4238 368.759 21.3918 367.063 21.3918C366.06 21.3918 365.303 21.3971 364.791 21.4078V23.0718Z" fill="white"/>
<path d="M351.854 14.208C353.859 14.208 355.443 14.4533 356.606 14.944C357.769 15.424 358.579 16.096 359.038 16.96C359.507 17.8133 359.742 18.864 359.742 20.112C359.742 21.296 359.475 22.3307 358.942 23.216C358.409 24.1013 357.609 24.7893 356.542 25.28C355.475 25.76 354.163 26 352.606 26C351.657 26 350.691 26 349.71 26C348.729 26 347.737 25.9947 346.734 25.984C346.819 23.8827 346.862 21.9253 346.862 20.112C346.862 18.2773 346.819 16.3627 346.734 14.368C348.003 14.2613 349.71 14.208 351.854 14.208ZM353.054 22.816C354.046 22.816 354.707 22.576 355.038 22.096C355.369 21.616 355.534 20.9547 355.534 20.112C355.534 19.3013 355.358 18.6453 355.006 18.144C354.665 17.6427 354.014 17.392 353.054 17.392C352.019 17.392 351.246 17.424 350.734 17.488V22.816H353.054Z" fill="white"/>
<path d="M342.243 17.7438C340.569 17.6905 338.942 17.6585 337.363 17.6478V25.9998H333.363V17.6478C331.774 17.6585 330.153 17.6905 328.5 17.7438V14.3838H342.243V17.7438Z" fill="white"/>
<path d="M314.359 24.624C314.722 24.08 315.02 23.5733 315.255 23.104C315.5 22.6346 315.735 22.0906 315.959 21.472C316.716 21.9093 317.596 22.2506 318.599 22.496C319.602 22.7413 320.535 22.864 321.399 22.864C322.284 22.864 322.908 22.7893 323.271 22.64C323.634 22.48 323.815 22.3093 323.815 22.128C323.815 21.4773 322.823 21.152 320.839 21.152C318.663 21.152 317.084 20.928 316.103 20.48C315.122 20.0213 314.631 19.2853 314.631 18.272C314.631 16.832 315.228 15.7706 316.423 15.088C317.618 14.4053 319.17 14.064 321.079 14.064C322.188 14.064 323.324 14.208 324.487 14.496C325.66 14.7733 326.716 15.1573 327.655 15.648C327.346 16.352 327.02 17.2106 326.679 18.224C326.615 18.4373 326.562 18.5973 326.519 18.704C325.975 18.2666 325.154 17.904 324.055 17.616C322.956 17.3173 321.986 17.168 321.143 17.168C320.13 17.168 319.447 17.2373 319.095 17.376C318.743 17.504 318.567 17.696 318.567 17.952C318.567 18.208 318.807 18.416 319.287 18.576C319.778 18.7253 320.482 18.8 321.399 18.8C323.66 18.8 325.303 19.0613 326.327 19.584C327.351 20.096 327.863 20.8853 327.863 21.952C327.863 23.4453 327.319 24.5226 326.231 25.184C325.143 25.8346 323.495 26.16 321.287 26.16C320.103 26.16 318.898 26.032 317.671 25.776C316.444 25.5093 315.34 25.1253 314.359 24.624Z" fill="white"/>
<path d="M313.077 17.5678C311.807 17.5038 310.869 17.4665 310.261 17.4558V22.9278C310.879 22.9171 311.818 22.8798 313.077 22.8158V25.9998H303.781V22.8158C305.007 22.8798 305.941 22.9171 306.581 22.9278V17.4558C305.941 17.4665 305.007 17.5038 303.781 17.5678V14.3838H313.077V17.5678Z" fill="white"/>
<path d="M302.502 14.3999C302.427 16.2026 302.39 18.1332 302.39 20.1919C302.39 22.2612 302.427 24.1972 302.502 25.9999H296.774L292.902 17.2639L293.19 25.9999H289.078C289.163 23.9306 289.206 21.9946 289.206 20.1919C289.206 18.3999 289.163 16.4692 289.078 14.3999H294.966L298.854 23.3759L298.582 14.3999H302.502Z" fill="white"/>
<path d="M280.666 26.1599C278.224 26.1599 276.426 25.6319 275.274 24.5759C274.122 23.5092 273.546 22.0159 273.546 20.0959C273.546 18.1972 274.117 16.7145 275.258 15.6479C276.41 14.5812 278.213 14.0479 280.666 14.0479C283.13 14.0479 284.933 14.5812 286.074 15.6479C287.226 16.7145 287.802 18.1972 287.802 20.0959C287.802 22.0265 287.232 23.5199 286.09 24.5759C284.949 25.6319 283.141 26.1599 280.666 26.1599ZM280.666 22.8959C281.85 22.8959 282.704 22.6719 283.226 22.2239C283.749 21.7652 284.01 21.0559 284.01 20.0959C284.01 19.1572 283.749 18.4585 283.226 17.9999C282.704 17.5412 281.85 17.3119 280.666 17.3119C279.493 17.3119 278.645 17.5412 278.122 17.9999C277.6 18.4585 277.338 19.1572 277.338 20.0959C277.338 21.0452 277.6 21.7492 278.122 22.2079C278.645 22.6665 279.493 22.8959 280.666 22.8959Z" fill="white"/>
<path d="M272.264 17.5678C270.995 17.5038 270.056 17.4665 269.448 17.4558V22.9278C270.067 22.9171 271.006 22.8798 272.264 22.8158V25.9998H262.968V22.8158C264.195 22.8798 265.128 22.9171 265.768 22.9278V17.4558C265.128 17.4665 264.195 17.5038 262.968 17.5678V14.3838H272.264V17.5678Z" fill="white"/>
<path d="M248.187 24.624C248.55 24.08 248.848 23.5733 249.083 23.104C249.328 22.6346 249.563 22.0906 249.787 21.472C250.544 21.9093 251.424 22.2506 252.427 22.496C253.43 22.7413 254.363 22.864 255.227 22.864C256.112 22.864 256.736 22.7893 257.099 22.64C257.462 22.48 257.643 22.3093 257.643 22.128C257.643 21.4773 256.651 21.152 254.667 21.152C252.491 21.152 250.912 20.928 249.931 20.48C248.95 20.0213 248.459 19.2853 248.459 18.272C248.459 16.832 249.056 15.7706 250.251 15.088C251.446 14.4053 252.998 14.064 254.907 14.064C256.016 14.064 257.152 14.208 258.315 14.496C259.488 14.7733 260.544 15.1573 261.483 15.648C261.174 16.352 260.848 17.2106 260.507 18.224C260.443 18.4373 260.39 18.5973 260.347 18.704C259.803 18.2666 258.982 17.904 257.883 17.616C256.784 17.3173 255.814 17.168 254.971 17.168C253.958 17.168 253.275 17.2373 252.923 17.376C252.571 17.504 252.395 17.696 252.395 17.952C252.395 18.208 252.635 18.416 253.115 18.576C253.606 18.7253 254.31 18.8 255.227 18.8C257.488 18.8 259.131 19.0613 260.155 19.584C261.179 20.096 261.691 20.8853 261.691 21.952C261.691 23.4453 261.147 24.5226 260.059 25.184C258.971 25.8346 257.323 26.16 255.115 26.16C253.931 26.16 252.726 26.032 251.499 25.776C250.272 25.5093 249.168 25.1253 248.187 24.624Z" fill="white"/>
<path d="M246.905 17.5678C245.636 17.5038 244.697 17.4665 244.089 17.4558V22.9278C244.708 22.9171 245.646 22.8798 246.905 22.8158V25.9998H237.609V22.8158C238.836 22.8798 239.769 22.9171 240.409 22.9278V17.4558C239.769 17.4665 238.836 17.5038 237.609 17.5678V14.3838H246.905V17.5678Z" fill="white"/>
<path d="M236.756 14.3838L235.7 16.8318C234.772 18.9971 234.041 20.7305 233.508 22.0318C232.974 23.3331 232.484 24.6558 232.036 25.9998H227.252C226.814 24.6771 226.329 23.3705 225.796 22.0798C225.273 20.7785 224.569 19.1145 223.684 17.0878C223.534 16.7465 223.145 15.8451 222.516 14.3838H226.964C227.284 15.4185 227.758 16.7465 228.388 18.3678C228.942 19.7971 229.39 21.0345 229.732 22.0798C229.956 21.3438 230.222 20.5598 230.532 19.7278C230.852 18.8851 231.044 18.3731 231.108 18.1918C231.726 16.5598 232.18 15.2905 232.468 14.3838H236.756Z" fill="white"/>
<path d="M205.861 14.3999C205.786 16.2026 205.749 18.1332 205.749 20.1919C205.749 22.2612 205.786 24.1972 205.861 25.9999H200.133L196.261 17.2639L196.549 25.9999H192.437C192.522 23.9306 192.565 21.9946 192.565 20.1919C192.565 18.3999 192.522 16.4692 192.437 14.3999H198.325L202.213 23.3759L201.941 14.3999H205.861Z" fill="white"/>
<path d="M184.326 19.3759H191.158V25.9999H188.342L188.006 23.1679C187.686 24.1812 187.115 24.9332 186.294 25.4239C185.473 25.9145 184.47 26.1599 183.286 26.1599C182.209 26.1599 181.249 25.9199 180.406 25.4399C179.574 24.9599 178.918 24.2719 178.438 23.3759C177.969 22.4799 177.734 21.4345 177.734 20.2399C177.734 18.3305 178.305 16.8212 179.446 15.7119C180.587 14.6025 182.363 14.0479 184.774 14.0479C186.15 14.0479 187.361 14.2719 188.406 14.7199C189.462 15.1679 190.358 15.8612 191.094 16.7999C190.614 17.0452 189.675 17.5359 188.278 18.2719L187.878 18.4959C187.462 18.0799 186.977 17.7705 186.422 17.5679C185.867 17.3545 185.281 17.2479 184.662 17.2479C183.638 17.2479 182.875 17.5199 182.374 18.0639C181.873 18.5972 181.622 19.2585 181.622 20.0479C181.622 20.9012 181.889 21.5892 182.422 22.1119C182.966 22.6345 183.793 22.8959 184.902 22.8959C185.382 22.8959 185.846 22.8265 186.294 22.6879C186.753 22.5492 187.137 22.3092 187.446 21.9679H184.326V19.3759Z" fill="white"/>
<path d="M176.452 17.5678C175.182 17.5038 174.244 17.4665 173.636 17.4558V22.9278C174.254 22.9171 175.193 22.8798 176.452 22.8158V25.9998H167.156V22.8158C168.382 22.8798 169.316 22.9171 169.956 22.9278V17.4558C169.316 17.4665 168.382 17.5038 167.156 17.5678V14.3838H176.452V17.5678Z" fill="white"/>
<path d="M152.375 24.624C152.737 24.08 153.036 23.5733 153.271 23.104C153.516 22.6346 153.751 22.0906 153.975 21.472C154.732 21.9093 155.612 22.2506 156.615 22.496C157.617 22.7413 158.551 22.864 159.415 22.864C160.3 22.864 160.924 22.7893 161.287 22.64C161.649 22.48 161.831 22.3093 161.831 22.128C161.831 21.4773 160.839 21.152 158.855 21.152C156.679 21.152 155.1 20.928 154.119 20.48C153.137 20.0213 152.647 19.2853 152.647 18.272C152.647 16.832 153.244 15.7706 154.439 15.088C155.633 14.4053 157.185 14.064 159.095 14.064C160.204 14.064 161.34 14.208 162.503 14.496C163.676 14.7733 164.732 15.1573 165.671 15.648C165.361 16.352 165.036 17.2106 164.695 18.224C164.631 18.4373 164.577 18.5973 164.535 18.704C163.991 18.2666 163.169 17.904 162.071 17.616C160.972 17.3173 160.001 17.168 159.159 17.168C158.145 17.168 157.463 17.2373 157.111 17.376C156.759 17.504 156.583 17.696 156.583 17.952C156.583 18.208 156.823 18.416 157.303 18.576C157.793 18.7253 158.497 18.8 159.415 18.8C161.676 18.8 163.319 19.0613 164.343 19.584C165.367 20.096 165.879 20.8853 165.879 21.952C165.879 23.4453 165.335 24.5226 164.247 25.184C163.159 25.8346 161.511 26.16 159.303 26.16C158.119 26.16 156.913 26.032 155.687 25.776C154.46 25.5093 153.356 25.1253 152.375 24.624Z" fill="white"/>
<path d="M142.276 23.0718C146.329 23.0505 149.268 22.9918 151.092 22.8958C151.017 23.3331 150.969 23.7865 150.948 24.2558C150.937 24.7145 150.932 25.2958 150.932 25.9998H138.5C138.585 23.9305 138.628 21.9945 138.628 20.1918C138.628 18.3891 138.585 16.4531 138.5 14.3838H150.932V17.2798H142.276V18.8158C142.788 18.8265 143.545 18.8318 144.548 18.8318C146.244 18.8318 147.998 18.7998 149.812 18.7358V21.4878C147.998 21.4238 146.244 21.3918 144.548 21.3918C143.545 21.3918 142.788 21.3971 142.276 21.4078V23.0718Z" fill="white"/>
<path d="M129.338 14.208C131.344 14.208 132.928 14.4533 134.09 14.944C135.253 15.424 136.064 16.096 136.522 16.96C136.992 17.8133 137.226 18.864 137.226 20.112C137.226 21.296 136.96 22.3307 136.426 23.216C135.893 24.1013 135.093 24.7893 134.026 25.28C132.96 25.76 131.648 26 130.09 26C129.141 26 128.176 26 127.194 26C126.213 26 125.221 25.9947 124.218 25.984C124.304 23.8827 124.346 21.9253 124.346 20.112C124.346 18.2773 124.304 16.3627 124.218 14.368C125.488 14.2613 127.194 14.208 129.338 14.208ZM130.538 22.816C131.53 22.816 132.192 22.576 132.522 22.096C132.853 21.616 133.018 20.9547 133.018 20.112C133.018 19.3013 132.842 18.6453 132.49 18.144C132.149 17.6427 131.498 17.392 130.538 17.392C129.504 17.392 128.73 17.424 128.218 17.488V22.816H130.538Z" fill="white"/>
<path d="M119.728 17.7438C118.053 17.6905 116.427 17.6585 114.848 17.6478V25.9998H110.848V17.6478C109.259 17.6585 107.637 17.6905 105.984 17.7438V14.3838H119.728V17.7438Z" fill="white"/>
<path d="M91.8433 24.624C92.2059 24.08 92.5046 23.5733 92.7393 23.104C92.9846 22.6346 93.2193 22.0906 93.4433 21.472C94.2006 21.9093 95.0806 22.2506 96.0833 22.496C97.0859 22.7413 98.0193 22.864 98.8833 22.864C99.7686 22.864 100.393 22.7893 100.755 22.64C101.118 22.48 101.299 22.3093 101.299 22.128C101.299 21.4773 100.307 21.152 98.3233 21.152C96.1473 21.152 94.5686 20.928 93.5873 20.48C92.6059 20.0213 92.1153 19.2853 92.1153 18.272C92.1153 16.832 92.7126 15.7706 93.9073 15.088C95.1019 14.4053 96.6539 14.064 98.5633 14.064C99.6726 14.064 100.809 14.208 101.971 14.496C103.145 14.7733 104.201 15.1573 105.139 15.648C104.83 16.352 104.505 17.2106 104.163 18.224C104.099 18.4373 104.046 18.5973 104.003 18.704C103.459 18.2666 102.638 17.904 101.539 17.616C100.441 17.3173 99.4699 17.168 98.6273 17.168C97.6139 17.168 96.9313 17.2373 96.5793 17.376C96.2273 17.504 96.0513 17.696 96.0513 17.952C96.0513 18.208 96.2913 18.416 96.7713 18.576C97.2619 18.7253 97.9659 18.8 98.8833 18.8C101.145 18.8 102.787 19.0613 103.811 19.584C104.835 20.096 105.347 20.8853 105.347 21.952C105.347 23.4453 104.803 24.5226 103.715 25.184C102.627 25.8346 100.979 26.16 98.7713 26.16C97.5873 26.16 96.3819 26.032 95.1553 25.776C93.9286 25.5093 92.8246 25.1253 91.8433 24.624Z" fill="white"/>
<path d="M90.5611 17.5678C89.2918 17.5038 88.3531 17.4665 87.7451 17.4558V22.9278C88.3638 22.9171 89.3025 22.8798 90.5611 22.8158V25.9998H81.2651V22.8158C82.4918 22.8798 83.4251 22.9171 84.0651 22.9278V17.4558C83.4251 17.4665 82.4918 17.5038 81.2651 17.5678V14.3838H90.5611V17.5678Z" fill="white"/>
<path d="M79.986 14.3999C79.9113 16.2026 79.874 18.1332 79.874 20.1919C79.874 22.2612 79.9113 24.1972 79.986 25.9999H74.258L70.386 17.2639L70.674 25.9999H66.562C66.6473 23.9306 66.69 21.9946 66.69 20.1919C66.69 18.3999 66.6473 16.4692 66.562 14.3999H72.45L76.338 23.3759L76.066 14.3999H79.986Z" fill="white"/>
<path d="M58.1508 26.1599C55.7081 26.1599 53.9108 25.6319 52.7588 24.5759C51.6068 23.5092 51.0308 22.0159 51.0308 20.0959C51.0308 18.1972 51.6014 16.7145 52.7428 15.6479C53.8948 14.5812 55.6974 14.0479 58.1508 14.0479C60.6148 14.0479 62.4174 14.5812 63.5588 15.6479C64.7108 16.7145 65.2868 18.1972 65.2868 20.0959C65.2868 22.0265 64.7161 23.5199 63.5748 24.5759C62.4334 25.6319 60.6254 26.1599 58.1508 26.1599ZM58.1508 22.8959C59.3348 22.8959 60.1881 22.6719 60.7108 22.2239C61.2334 21.7652 61.4948 21.0559 61.4948 20.0959C61.4948 19.1572 61.2334 18.4585 60.7108 17.9999C60.1881 17.5412 59.3348 17.3119 58.1508 17.3119C56.9774 17.3119 56.1294 17.5412 55.6068 17.9999C55.0841 18.4585 54.8228 19.1572 54.8228 20.0959C54.8228 21.0452 55.0841 21.7492 55.6068 22.2079C56.1294 22.6665 56.9774 22.8959 58.1508 22.8959Z" fill="white"/>
<path d="M49.7486 17.5678C48.4793 17.5038 47.5406 17.4665 46.9326 17.4558V22.9278C47.5513 22.9171 48.49 22.8798 49.7486 22.8158V25.9998H40.4526V22.8158C41.6793 22.8798 42.6126 22.9171 43.2526 22.9278V17.4558C42.6126 17.4665 41.6793 17.5038 40.4526 17.5678V14.3838H49.7486V17.5678Z" fill="white"/>
<path d="M25.6714 24.624C26.0341 24.08 26.3327 23.5733 26.5674 23.104C26.8127 22.6346 27.0474 22.0906 27.2714 21.472C28.0287 21.9093 28.9087 22.2506 29.9114 22.496C30.9141 22.7413 31.8474 22.864 32.7114 22.864C33.5967 22.864 34.2207 22.7893 34.5834 22.64C34.9461 22.48 35.1274 22.3093 35.1274 22.128C35.1274 21.4773 34.1354 21.152 32.1514 21.152C29.9754 21.152 28.3967 20.928 27.4154 20.48C26.4341 20.0213 25.9434 19.2853 25.9434 18.272C25.9434 16.832 26.5407 15.7706 27.7354 15.088C28.9301 14.4053 30.4821 14.064 32.3914 14.064C33.5007 14.064 34.6367 14.208 35.7994 14.496C36.9727 14.7733 38.0287 15.1573 38.9674 15.648C38.6581 16.352 38.3327 17.2106 37.9914 18.224C37.9274 18.4373 37.8741 18.5973 37.8314 18.704C37.2874 18.2666 36.4661 17.904 35.3674 17.616C34.2687 17.3173 33.2981 17.168 32.4554 17.168C31.4421 17.168 30.7594 17.2373 30.4074 17.376C30.0554 17.504 29.8794 17.696 29.8794 17.952C29.8794 18.208 30.1194 18.416 30.5994 18.576C31.0901 18.7253 31.7941 18.8 32.7114 18.8C34.9727 18.8 36.6154 19.0613 37.6394 19.584C38.6634 20.096 39.1754 20.8853 39.1754 21.952C39.1754 23.4453 38.6314 24.5226 37.5434 25.184C36.4554 25.8346 34.8074 26.16 32.5994 26.16C31.4154 26.16 30.2101 26.032 28.9834 25.776C27.7567 25.5093 26.6527 25.1253 25.6714 24.624Z" fill="white"/>
<path d="M24.3893 17.5678C23.1199 17.5038 22.1813 17.4665 21.5733 17.4558V22.9278C22.1919 22.9171 23.1306 22.8798 24.3893 22.8158V25.9998H15.0933V22.8158C16.3199 22.8798 17.2533 22.9171 17.8933 22.9278V17.4558C17.2533 17.4665 16.3199 17.5038 15.0933 17.5678V14.3838H24.3893V17.5678Z" fill="white"/>
<path d="M14.24 14.3838L13.184 16.8318C12.256 18.9971 11.5253 20.7305 10.992 22.0318C10.4587 23.3331 9.968 24.6558 9.52 25.9998H4.736C4.29867 24.6771 3.81333 23.3705 3.28 22.0798C2.75733 20.7785 2.05333 19.1145 1.168 17.0878C1.01867 16.7465 0.629333 15.8451 0 14.3838H4.448C4.768 15.4185 5.24267 16.7465 5.872 18.3678C6.42667 19.7971 6.87467 21.0345 7.216 22.0798C7.44 21.3438 7.70667 20.5598 8.016 19.7278C8.336 18.8851 8.528 18.3731 8.592 18.1918C9.21067 16.5598 9.664 15.2905 9.952 14.3838H14.24Z" fill="white"/>
</g>
<defs>
<linearGradient id="paint0_linear_1_1621" x1="594.571" y1="85.1631" x2="612.049" y2="-43.8669" gradientUnits="userSpaceOnUse">
<stop stop-color="#222222"/>
<stop offset="1" stop-color="#999999"/>
</linearGradient>
<clipPath id="clip0_1_1621">
<rect width="1200" height="40" fill="white"/>
</clipPath>
</defs>
</svg>
