<svg width="696" height="40" viewBox="0 0 696 40" fill="none" xmlns="http://www.w3.org/2000/svg">
<g clip-path="url(#clip0_1_1715)">
<path d="M696 0H0V40H696V0Z" fill="url(#paint0_linear_1_1715)"/>
<path d="M693.218 24.624C693.581 24.08 693.88 23.5733 694.114 23.104C694.36 22.6346 694.594 22.0906 694.818 21.472C695.576 21.9093 696.456 22.2506 697.458 22.496C698.461 22.7413 699.394 22.864 700.258 22.864C701.144 22.864 701.768 22.7893 702.13 22.64C702.493 22.48 702.674 22.3093 702.674 22.128C702.674 21.4773 701.682 21.152 699.698 21.152C697.522 21.152 695.944 20.928 694.962 20.48C693.981 20.0213 693.49 19.2853 693.49 18.272C693.49 16.832 694.088 15.7706 695.282 15.088C696.477 14.4053 698.029 14.064 699.938 14.064C701.048 14.064 702.184 14.208 703.346 14.496C704.52 14.7733 705.576 15.1573 706.514 15.648C706.205 16.352 705.88 17.2106 705.538 18.224C705.474 18.4373 705.421 18.5973 705.378 18.704C704.834 18.2666 704.013 17.904 702.914 17.616C701.816 17.3173 700.845 17.168 700.002 17.168C698.989 17.168 698.306 17.2373 697.954 17.376C697.602 17.504 697.426 17.696 697.426 17.952C697.426 18.208 697.666 18.416 698.146 18.576C698.637 18.7253 699.341 18.8 700.258 18.8C702.52 18.8 704.162 19.0613 705.186 19.584C706.21 20.096 706.722 20.8853 706.722 21.952C706.722 23.4453 706.178 24.5226 705.09 25.184C704.002 25.8346 702.354 26.16 700.146 26.16C698.962 26.16 697.757 26.032 696.53 25.776C695.304 25.5093 694.2 25.1253 693.218 24.624Z" fill="white"/>
<path d="M691.936 17.5678C690.667 17.5038 689.728 17.4665 689.12 17.4558V22.9278C689.739 22.9171 690.677 22.8798 691.936 22.8158V25.9998H682.64V22.8158C683.867 22.8798 684.8 22.9171 685.44 22.9278V17.4558C684.8 17.4665 683.867 17.5038 682.64 17.5678V14.3838H691.936V17.5678Z" fill="white"/>
<path d="M681.787 14.3838L680.731 16.8318C679.803 18.9971 679.072 20.7305 678.539 22.0318C678.006 23.3331 677.515 24.6558 677.067 25.9998H672.283C671.846 24.6771 671.36 23.3705 670.827 22.0798C670.304 20.7785 669.6 19.1145 668.715 17.0878C668.566 16.7465 668.176 15.8451 667.547 14.3838H671.995C672.315 15.4185 672.79 16.7465 673.419 18.3678C673.974 19.7971 674.422 21.0345 674.763 22.0798C674.987 21.3438 675.254 20.5598 675.563 19.7278C675.883 18.8851 676.075 18.3731 676.139 18.1918C676.758 16.5598 677.211 15.2905 677.499 14.3838H681.787Z" fill="white"/>
<path d="M650.892 14.3999C650.818 16.2026 650.78 18.1332 650.78 20.1919C650.78 22.2612 650.818 24.1972 650.892 25.9999H645.164L641.292 17.2639L641.58 25.9999H637.468C637.554 23.9306 637.596 21.9946 637.596 20.1919C637.596 18.3999 637.554 16.4692 637.468 14.3999H643.356L647.244 23.3759L646.972 14.3999H650.892Z" fill="white"/>
<path d="M629.357 19.3759H636.189V25.9999H633.373L633.037 23.1679C632.717 24.1812 632.146 24.9332 631.325 25.4239C630.504 25.9145 629.501 26.1599 628.317 26.1599C627.24 26.1599 626.28 25.9199 625.437 25.4399C624.605 24.9599 623.949 24.2719 623.469 23.3759C623 22.4799 622.765 21.4345 622.765 20.2399C622.765 18.3305 623.336 16.8212 624.477 15.7119C625.618 14.6025 627.394 14.0479 629.805 14.0479C631.181 14.0479 632.392 14.2719 633.437 14.7199C634.493 15.1679 635.389 15.8612 636.125 16.7999C635.645 17.0452 634.706 17.5359 633.309 18.2719L632.909 18.4959C632.493 18.0799 632.008 17.7705 631.453 17.5679C630.898 17.3545 630.312 17.2479 629.693 17.2479C628.669 17.2479 627.906 17.5199 627.405 18.0639C626.904 18.5972 626.653 19.2585 626.653 20.0479C626.653 20.9012 626.92 21.5892 627.453 22.1119C627.997 22.6345 628.824 22.8959 629.933 22.8959C630.413 22.8959 630.877 22.8265 631.325 22.6879C631.784 22.5492 632.168 22.3092 632.477 21.9679H629.357V19.3759Z" fill="white"/>
<path d="M621.483 17.5678C620.214 17.5038 619.275 17.4665 618.667 17.4558V22.9278C619.286 22.9171 620.224 22.8798 621.483 22.8158V25.9998H612.187V22.8158C613.414 22.8798 614.347 22.9171 614.987 22.9278V17.4558C614.347 17.4665 613.414 17.5038 612.187 17.5678V14.3838H621.483V17.5678Z" fill="white"/>
<path d="M597.406 24.624C597.768 24.08 598.067 23.5733 598.302 23.104C598.547 22.6346 598.782 22.0906 599.006 21.472C599.763 21.9093 600.643 22.2506 601.646 22.496C602.648 22.7413 603.582 22.864 604.446 22.864C605.331 22.864 605.955 22.7893 606.318 22.64C606.68 22.48 606.862 22.3093 606.862 22.128C606.862 21.4773 605.87 21.152 603.886 21.152C601.71 21.152 600.131 20.928 599.15 20.48C598.168 20.0213 597.678 19.2853 597.678 18.272C597.678 16.832 598.275 15.7706 599.47 15.088C600.664 14.4053 602.216 14.064 604.126 14.064C605.235 14.064 606.371 14.208 607.534 14.496C608.707 14.7733 609.763 15.1573 610.702 15.648C610.392 16.352 610.067 17.2106 609.726 18.224C609.662 18.4373 609.608 18.5973 609.566 18.704C609.022 18.2666 608.2 17.904 607.102 17.616C606.003 17.3173 605.032 17.168 604.19 17.168C603.176 17.168 602.494 17.2373 602.142 17.376C601.79 17.504 601.614 17.696 601.614 17.952C601.614 18.208 601.854 18.416 602.334 18.576C602.824 18.7253 603.528 18.8 604.446 18.8C606.707 18.8 608.35 19.0613 609.374 19.584C610.398 20.096 610.91 20.8853 610.91 21.952C610.91 23.4453 610.366 24.5226 609.278 25.184C608.19 25.8346 606.542 26.16 604.334 26.16C603.15 26.16 601.944 26.032 600.718 25.776C599.491 25.5093 598.387 25.1253 597.406 24.624Z" fill="white"/>
<path d="M587.307 23.0718C591.36 23.0505 594.299 22.9918 596.123 22.8958C596.048 23.3331 596 23.7865 595.979 24.2558C595.968 24.7145 595.963 25.2958 595.963 25.9998H583.531C583.616 23.9305 583.659 21.9945 583.659 20.1918C583.659 18.3891 583.616 16.4531 583.531 14.3838H595.963V17.2798H587.307V18.8158C587.819 18.8265 588.576 18.8318 589.579 18.8318C591.275 18.8318 593.029 18.7998 594.843 18.7358V21.4878C593.029 21.4238 591.275 21.3918 589.579 21.3918C588.576 21.3918 587.819 21.3971 587.307 21.4078V23.0718Z" fill="white"/>
<path d="M574.37 14.208C576.375 14.208 577.959 14.4533 579.122 14.944C580.284 15.424 581.095 16.096 581.553 16.96C582.023 17.8133 582.258 18.864 582.258 20.112C582.258 21.296 581.991 22.3307 581.458 23.216C580.924 24.1013 580.124 24.7893 579.057 25.28C577.991 25.76 576.679 26 575.122 26C574.172 26 573.207 26 572.226 26C571.244 26 570.252 25.9947 569.25 25.984C569.335 23.8827 569.378 21.9253 569.378 20.112C569.378 18.2773 569.335 16.3627 569.25 14.368C570.519 14.2613 572.226 14.208 574.37 14.208ZM575.57 22.816C576.562 22.816 577.223 22.576 577.553 22.096C577.884 21.616 578.049 20.9547 578.049 20.112C578.049 19.3013 577.873 18.6453 577.521 18.144C577.18 17.6427 576.53 17.392 575.57 17.392C574.535 17.392 573.762 17.424 573.25 17.488V22.816H575.57Z" fill="white"/>
<path d="M564.759 17.7438C563.084 17.6905 561.458 17.6585 559.879 17.6478V25.9998H555.879V17.6478C554.29 17.6585 552.668 17.6905 551.015 17.7438V14.3838H564.759V17.7438Z" fill="white"/>
<path d="M536.875 24.624C537.237 24.08 537.536 23.5733 537.771 23.104C538.016 22.6346 538.25 22.0906 538.474 21.472C539.232 21.9093 540.112 22.2506 541.115 22.496C542.117 22.7413 543.05 22.864 543.914 22.864C544.8 22.864 545.424 22.7893 545.786 22.64C546.149 22.48 546.331 22.3093 546.331 22.128C546.331 21.4773 545.338 21.152 543.354 21.152C541.178 21.152 539.6 20.928 538.618 20.48C537.637 20.0213 537.146 19.2853 537.146 18.272C537.146 16.832 537.744 15.7706 538.938 15.088C540.133 14.4053 541.685 14.064 543.594 14.064C544.704 14.064 545.84 14.208 547.003 14.496C548.176 14.7733 549.232 15.1573 550.17 15.648C549.861 16.352 549.536 17.2106 549.195 18.224C549.131 18.4373 549.077 18.5973 549.034 18.704C548.49 18.2666 547.669 17.904 546.57 17.616C545.472 17.3173 544.501 17.168 543.659 17.168C542.645 17.168 541.962 17.2373 541.61 17.376C541.258 17.504 541.083 17.696 541.083 17.952C541.083 18.208 541.322 18.416 541.802 18.576C542.293 18.7253 542.997 18.8 543.914 18.8C546.176 18.8 547.818 19.0613 548.842 19.584C549.866 20.096 550.378 20.8853 550.378 21.952C550.378 23.4453 549.835 24.5226 548.747 25.184C547.659 25.8346 546.01 26.16 543.802 26.16C542.618 26.16 541.413 26.032 540.187 25.776C538.96 25.5093 537.856 25.1253 536.875 24.624Z" fill="white"/>
<path d="M535.592 17.5678C534.323 17.5038 533.384 17.4665 532.776 17.4558V22.9278C533.395 22.9171 534.334 22.8798 535.592 22.8158V25.9998H526.296V22.8158C527.523 22.8798 528.456 22.9171 529.096 22.9278V17.4558C528.456 17.4665 527.523 17.5038 526.296 17.5678V14.3838H535.592V17.5678Z" fill="white"/>
<path d="M525.017 14.3999C524.943 16.2026 524.905 18.1332 524.905 20.1919C524.905 22.2612 524.943 24.1972 525.017 25.9999H519.289L515.417 17.2639L515.705 25.9999H511.593C511.679 23.9306 511.721 21.9946 511.721 20.1919C511.721 18.3999 511.679 16.4692 511.593 14.3999H517.481L521.369 23.3759L521.097 14.3999H525.017Z" fill="white"/>
<path d="M503.182 26.1599C500.739 26.1599 498.942 25.6319 497.79 24.5759C496.638 23.5092 496.062 22.0159 496.062 20.0959C496.062 18.1972 496.633 16.7145 497.774 15.6479C498.926 14.5812 500.729 14.0479 503.182 14.0479C505.646 14.0479 507.449 14.5812 508.59 15.6479C509.742 16.7145 510.318 18.1972 510.318 20.0959C510.318 22.0265 509.747 23.5199 508.606 24.5759C507.465 25.6319 505.657 26.1599 503.182 26.1599ZM503.182 22.8959C504.366 22.8959 505.219 22.6719 505.742 22.2239C506.265 21.7652 506.526 21.0559 506.526 20.0959C506.526 19.1572 506.265 18.4585 505.742 17.9999C505.219 17.5412 504.366 17.3119 503.182 17.3119C502.009 17.3119 501.161 17.5412 500.638 17.9999C500.115 18.4585 499.854 19.1572 499.854 20.0959C499.854 21.0452 500.115 21.7492 500.638 22.2079C501.161 22.6665 502.009 22.8959 503.182 22.8959Z" fill="white"/>
<path d="M494.78 17.5678C493.511 17.5038 492.572 17.4665 491.964 17.4558V22.9278C492.583 22.9171 493.521 22.8798 494.78 22.8158V25.9998H485.484V22.8158C486.711 22.8798 487.644 22.9171 488.284 22.9278V17.4558C487.644 17.4665 486.711 17.5038 485.484 17.5678V14.3838H494.78V17.5678Z" fill="white"/>
<path d="M470.703 24.624C471.065 24.08 471.364 23.5733 471.599 23.104C471.844 22.6346 472.079 22.0906 472.303 21.472C473.06 21.9093 473.94 22.2506 474.943 22.496C475.945 22.7413 476.879 22.864 477.743 22.864C478.628 22.864 479.252 22.7893 479.615 22.64C479.977 22.48 480.159 22.3093 480.159 22.128C480.159 21.4773 479.167 21.152 477.183 21.152C475.007 21.152 473.428 20.928 472.447 20.48C471.465 20.0213 470.975 19.2853 470.975 18.272C470.975 16.832 471.572 15.7706 472.767 15.088C473.961 14.4053 475.513 14.064 477.423 14.064C478.532 14.064 479.668 14.208 480.831 14.496C482.004 14.7733 483.06 15.1573 483.999 15.648C483.689 16.352 483.364 17.2106 483.023 18.224C482.959 18.4373 482.905 18.5973 482.863 18.704C482.319 18.2666 481.497 17.904 480.399 17.616C479.3 17.3173 478.329 17.168 477.487 17.168C476.473 17.168 475.791 17.2373 475.439 17.376C475.087 17.504 474.911 17.696 474.911 17.952C474.911 18.208 475.151 18.416 475.631 18.576C476.121 18.7253 476.825 18.8 477.743 18.8C480.004 18.8 481.647 19.0613 482.671 19.584C483.695 20.096 484.207 20.8853 484.207 21.952C484.207 23.4453 483.663 24.5226 482.575 25.184C481.487 25.8346 479.839 26.16 477.631 26.16C476.447 26.16 475.241 26.032 474.015 25.776C472.788 25.5093 471.684 25.1253 470.703 24.624Z" fill="white"/>
<path d="M469.421 17.5678C468.151 17.5038 467.212 17.4665 466.604 17.4558V22.9278C467.223 22.9171 468.162 22.8798 469.421 22.8158V25.9998H460.125V22.8158C461.351 22.8798 462.284 22.9171 462.924 22.9278V17.4558C462.284 17.4665 461.351 17.5038 460.125 17.5678V14.3838H469.421V17.5678Z" fill="white"/>
<path d="M459.271 14.3838L458.215 16.8318C457.287 18.9971 456.557 20.7305 456.023 22.0318C455.49 23.3331 454.999 24.6558 454.551 25.9998H449.767C449.33 24.6771 448.845 23.3705 448.311 22.0798C447.789 20.7785 447.085 19.1145 446.199 17.0878C446.05 16.7465 445.661 15.8451 445.031 14.3838H449.479C449.799 15.4185 450.274 16.7465 450.903 18.3678C451.458 19.7971 451.906 21.0345 452.247 22.0798C452.471 21.3438 452.738 20.5598 453.047 19.7278C453.367 18.8851 453.559 18.3731 453.623 18.1918C454.242 16.5598 454.695 15.2905 454.983 14.3838H459.271Z" fill="white"/>
<path d="M428.377 14.3999C428.302 16.2026 428.265 18.1332 428.265 20.1919C428.265 22.2612 428.302 24.1972 428.377 25.9999H422.649L418.777 17.2639L419.065 25.9999H414.953C415.038 23.9306 415.081 21.9946 415.081 20.1919C415.081 18.3999 415.038 16.4692 414.953 14.3999H420.841L424.729 23.3759L424.457 14.3999H428.377Z" fill="white"/>
<path d="M406.841 19.3759H413.673V25.9999H410.857L410.521 23.1679C410.201 24.1812 409.631 24.9332 408.81 25.4239C407.988 25.9145 406.985 26.1599 405.801 26.1599C404.724 26.1599 403.764 25.9199 402.922 25.4399C402.09 24.9599 401.433 24.2719 400.953 23.3759C400.484 22.4799 400.25 21.4345 400.25 20.2399C400.25 18.3305 400.82 16.8212 401.961 15.7119C403.103 14.6025 404.879 14.0479 407.289 14.0479C408.665 14.0479 409.876 14.2719 410.922 14.7199C411.978 15.1679 412.873 15.8612 413.609 16.7999C413.129 17.0452 412.191 17.5359 410.793 18.2719L410.393 18.4959C409.977 18.0799 409.492 17.7705 408.938 17.5679C408.383 17.3545 407.796 17.2479 407.177 17.2479C406.153 17.2479 405.391 17.5199 404.889 18.0639C404.388 18.5972 404.138 19.2585 404.138 20.0479C404.138 20.9012 404.404 21.5892 404.938 22.1119C405.482 22.6345 406.308 22.8959 407.418 22.8959C407.898 22.8959 408.362 22.8265 408.81 22.6879C409.268 22.5492 409.652 22.3092 409.961 21.9679H406.841V19.3759Z" fill="white"/>
<path d="M398.967 17.5678C397.698 17.5038 396.759 17.4665 396.151 17.4558V22.9278C396.77 22.9171 397.709 22.8798 398.967 22.8158V25.9998H389.671V22.8158C390.898 22.8798 391.831 22.9171 392.471 22.9278V17.4558C391.831 17.4665 390.898 17.5038 389.671 17.5678V14.3838H398.967V17.5678Z" fill="white"/>
<path d="M374.89 24.624C375.253 24.08 375.551 23.5733 375.786 23.104C376.031 22.6346 376.266 22.0906 376.49 21.472C377.247 21.9093 378.127 22.2506 379.13 22.496C380.133 22.7413 381.066 22.864 381.93 22.864C382.815 22.864 383.439 22.7893 383.802 22.64C384.165 22.48 384.346 22.3093 384.346 22.128C384.346 21.4773 383.354 21.152 381.37 21.152C379.194 21.152 377.615 20.928 376.634 20.48C375.653 20.0213 375.162 19.2853 375.162 18.272C375.162 16.832 375.759 15.7706 376.954 15.088C378.149 14.4053 379.701 14.064 381.61 14.064C382.719 14.064 383.855 14.208 385.018 14.496C386.191 14.7733 387.247 15.1573 388.186 15.648C387.877 16.352 387.551 17.2106 387.21 18.224C387.146 18.4373 387.093 18.5973 387.05 18.704C386.506 18.2666 385.685 17.904 384.586 17.616C383.487 17.3173 382.517 17.168 381.674 17.168C380.661 17.168 379.978 17.2373 379.626 17.376C379.274 17.504 379.098 17.696 379.098 17.952C379.098 18.208 379.338 18.416 379.818 18.576C380.309 18.7253 381.013 18.8 381.93 18.8C384.191 18.8 385.834 19.0613 386.858 19.584C387.882 20.096 388.394 20.8853 388.394 21.952C388.394 23.4453 387.85 24.5226 386.762 25.184C385.674 25.8346 384.026 26.16 381.818 26.16C380.634 26.16 379.429 26.032 378.202 25.776C376.975 25.5093 375.871 25.1253 374.89 24.624Z" fill="white"/>
<path d="M364.791 23.0718C368.844 23.0505 371.783 22.9918 373.607 22.8958C373.532 23.3331 373.484 23.7865 373.463 24.2558C373.452 24.7145 373.447 25.2958 373.447 25.9998H361.015C361.1 23.9305 361.143 21.9945 361.143 20.1918C361.143 18.3891 361.1 16.4531 361.015 14.3838H373.447V17.2798H364.791V18.8158C365.303 18.8265 366.06 18.8318 367.063 18.8318C368.759 18.8318 370.514 18.7998 372.327 18.7358V21.4878C370.514 21.4238 368.759 21.3918 367.063 21.3918C366.06 21.3918 365.303 21.3971 364.791 21.4078V23.0718Z" fill="white"/>
<path d="M351.854 14.208C353.859 14.208 355.443 14.4533 356.606 14.944C357.769 15.424 358.579 16.096 359.038 16.96C359.507 17.8133 359.742 18.864 359.742 20.112C359.742 21.296 359.475 22.3307 358.942 23.216C358.409 24.1013 357.609 24.7893 356.542 25.28C355.475 25.76 354.163 26 352.606 26C351.657 26 350.691 26 349.71 26C348.729 26 347.737 25.9947 346.734 25.984C346.819 23.8827 346.862 21.9253 346.862 20.112C346.862 18.2773 346.819 16.3627 346.734 14.368C348.003 14.2613 349.71 14.208 351.854 14.208ZM353.054 22.816C354.046 22.816 354.707 22.576 355.038 22.096C355.369 21.616 355.534 20.9547 355.534 20.112C355.534 19.3013 355.358 18.6453 355.006 18.144C354.665 17.6427 354.014 17.392 353.054 17.392C352.019 17.392 351.246 17.424 350.734 17.488V22.816H353.054Z" fill="white"/>
<path d="M342.243 17.7438C340.569 17.6905 338.942 17.6585 337.363 17.6478V25.9998H333.363V17.6478C331.774 17.6585 330.153 17.6905 328.5 17.7438V14.3838H342.243V17.7438Z" fill="white"/>
<path d="M314.359 24.624C314.722 24.08 315.02 23.5733 315.255 23.104C315.5 22.6346 315.735 22.0906 315.959 21.472C316.716 21.9093 317.596 22.2506 318.599 22.496C319.602 22.7413 320.535 22.864 321.399 22.864C322.284 22.864 322.908 22.7893 323.271 22.64C323.634 22.48 323.815 22.3093 323.815 22.128C323.815 21.4773 322.823 21.152 320.839 21.152C318.663 21.152 317.084 20.928 316.103 20.48C315.122 20.0213 314.631 19.2853 314.631 18.272C314.631 16.832 315.228 15.7706 316.423 15.088C317.618 14.4053 319.17 14.064 321.079 14.064C322.188 14.064 323.324 14.208 324.487 14.496C325.66 14.7733 326.716 15.1573 327.655 15.648C327.346 16.352 327.02 17.2106 326.679 18.224C326.615 18.4373 326.562 18.5973 326.519 18.704C325.975 18.2666 325.154 17.904 324.055 17.616C322.956 17.3173 321.986 17.168 321.143 17.168C320.13 17.168 319.447 17.2373 319.095 17.376C318.743 17.504 318.567 17.696 318.567 17.952C318.567 18.208 318.807 18.416 319.287 18.576C319.778 18.7253 320.482 18.8 321.399 18.8C323.66 18.8 325.303 19.0613 326.327 19.584C327.351 20.096 327.863 20.8853 327.863 21.952C327.863 23.4453 327.319 24.5226 326.231 25.184C325.143 25.8346 323.495 26.16 321.287 26.16C320.103 26.16 318.898 26.032 317.671 25.776C316.444 25.5093 315.34 25.1253 314.359 24.624Z" fill="white"/>
<path d="M313.077 17.5678C311.807 17.5038 310.869 17.4665 310.261 17.4558V22.9278C310.879 22.9171 311.818 22.8798 313.077 22.8158V25.9998H303.781V22.8158C305.007 22.8798 305.941 22.9171 306.581 22.9278V17.4558C305.941 17.4665 305.007 17.5038 303.781 17.5678V14.3838H313.077V17.5678Z" fill="white"/>
<path d="M302.502 14.3999C302.427 16.2026 302.39 18.1332 302.39 20.1919C302.39 22.2612 302.427 24.1972 302.502 25.9999H296.774L292.902 17.2639L293.19 25.9999H289.078C289.163 23.9306 289.206 21.9946 289.206 20.1919C289.206 18.3999 289.163 16.4692 289.078 14.3999H294.966L298.854 23.3759L298.582 14.3999H302.502Z" fill="white"/>
<path d="M280.666 26.1599C278.224 26.1599 276.426 25.6319 275.274 24.5759C274.122 23.5092 273.546 22.0159 273.546 20.0959C273.546 18.1972 274.117 16.7145 275.258 15.6479C276.41 14.5812 278.213 14.0479 280.666 14.0479C283.13 14.0479 284.933 14.5812 286.074 15.6479C287.226 16.7145 287.802 18.1972 287.802 20.0959C287.802 22.0265 287.232 23.5199 286.09 24.5759C284.949 25.6319 283.141 26.1599 280.666 26.1599ZM280.666 22.8959C281.85 22.8959 282.704 22.6719 283.226 22.2239C283.749 21.7652 284.01 21.0559 284.01 20.0959C284.01 19.1572 283.749 18.4585 283.226 17.9999C282.704 17.5412 281.85 17.3119 280.666 17.3119C279.493 17.3119 278.645 17.5412 278.122 17.9999C277.6 18.4585 277.338 19.1572 277.338 20.0959C277.338 21.0452 277.6 21.7492 278.122 22.2079C278.645 22.6665 279.493 22.8959 280.666 22.8959Z" fill="white"/>
<path d="M272.264 17.5678C270.995 17.5038 270.056 17.4665 269.448 17.4558V22.9278C270.067 22.9171 271.006 22.8798 272.264 22.8158V25.9998H262.968V22.8158C264.195 22.8798 265.128 22.9171 265.768 22.9278V17.4558C265.128 17.4665 264.195 17.5038 262.968 17.5678V14.3838H272.264V17.5678Z" fill="white"/>
<path d="M248.187 24.624C248.55 24.08 248.848 23.5733 249.083 23.104C249.328 22.6346 249.563 22.0906 249.787 21.472C250.544 21.9093 251.424 22.2506 252.427 22.496C253.43 22.7413 254.363 22.864 255.227 22.864C256.112 22.864 256.736 22.7893 257.099 22.64C257.462 22.48 257.643 22.3093 257.643 22.128C257.643 21.4773 256.651 21.152 254.667 21.152C252.491 21.152 250.912 20.928 249.931 20.48C248.95 20.0213 248.459 19.2853 248.459 18.272C248.459 16.832 249.056 15.7706 250.251 15.088C251.446 14.4053 252.998 14.064 254.907 14.064C256.016 14.064 257.152 14.208 258.315 14.496C259.488 14.7733 260.544 15.1573 261.483 15.648C261.174 16.352 260.848 17.2106 260.507 18.224C260.443 18.4373 260.39 18.5973 260.347 18.704C259.803 18.2666 258.982 17.904 257.883 17.616C256.784 17.3173 255.814 17.168 254.971 17.168C253.958 17.168 253.275 17.2373 252.923 17.376C252.571 17.504 252.395 17.696 252.395 17.952C252.395 18.208 252.635 18.416 253.115 18.576C253.606 18.7253 254.31 18.8 255.227 18.8C257.488 18.8 259.131 19.0613 260.155 19.584C261.179 20.096 261.691 20.8853 261.691 21.952C261.691 23.4453 261.147 24.5226 260.059 25.184C258.971 25.8346 257.323 26.16 255.115 26.16C253.931 26.16 252.726 26.032 251.499 25.776C250.272 25.5093 249.168 25.1253 248.187 24.624Z" fill="white"/>
<path d="M246.905 17.5678C245.636 17.5038 244.697 17.4665 244.089 17.4558V22.9278C244.708 22.9171 245.646 22.8798 246.905 22.8158V25.9998H237.609V22.8158C238.836 22.8798 239.769 22.9171 240.409 22.9278V17.4558C239.769 17.4665 238.836 17.5038 237.609 17.5678V14.3838H246.905V17.5678Z" fill="white"/>
<path d="M236.756 14.3838L235.7 16.8318C234.772 18.9971 234.041 20.7305 233.508 22.0318C232.974 23.3331 232.484 24.6558 232.036 25.9998H227.252C226.814 24.6771 226.329 23.3705 225.796 22.0798C225.273 20.7785 224.569 19.1145 223.684 17.0878C223.534 16.7465 223.145 15.8451 222.516 14.3838H226.964C227.284 15.4185 227.758 16.7465 228.388 18.3678C228.942 19.7971 229.39 21.0345 229.732 22.0798C229.956 21.3438 230.222 20.5598 230.532 19.7278C230.852 18.8851 231.044 18.3731 231.108 18.1918C231.726 16.5598 232.18 15.2905 232.468 14.3838H236.756Z" fill="white"/>
<path d="M205.861 14.3999C205.786 16.2026 205.749 18.1332 205.749 20.1919C205.749 22.2612 205.786 24.1972 205.861 25.9999H200.133L196.261 17.2639L196.549 25.9999H192.437C192.522 23.9306 192.565 21.9946 192.565 20.1919C192.565 18.3999 192.522 16.4692 192.437 14.3999H198.325L202.213 23.3759L201.941 14.3999H205.861Z" fill="white"/>
<path d="M184.326 19.3759H191.158V25.9999H188.342L188.006 23.1679C187.686 24.1812 187.115 24.9332 186.294 25.4239C185.473 25.9145 184.47 26.1599 183.286 26.1599C182.209 26.1599 181.249 25.9199 180.406 25.4399C179.574 24.9599 178.918 24.2719 178.438 23.3759C177.969 22.4799 177.734 21.4345 177.734 20.2399C177.734 18.3305 178.305 16.8212 179.446 15.7119C180.587 14.6025 182.363 14.0479 184.774 14.0479C186.15 14.0479 187.361 14.2719 188.406 14.7199C189.462 15.1679 190.358 15.8612 191.094 16.7999C190.614 17.0452 189.675 17.5359 188.278 18.2719L187.878 18.4959C187.462 18.0799 186.977 17.7705 186.422 17.5679C185.867 17.3545 185.281 17.2479 184.662 17.2479C183.638 17.2479 182.875 17.5199 182.374 18.0639C181.873 18.5972 181.622 19.2585 181.622 20.0479C181.622 20.9012 181.889 21.5892 182.422 22.1119C182.966 22.6345 183.793 22.8959 184.902 22.8959C185.382 22.8959 185.846 22.8265 186.294 22.6879C186.753 22.5492 187.137 22.3092 187.446 21.9679H184.326V19.3759Z" fill="white"/>
<path d="M176.452 17.5678C175.182 17.5038 174.244 17.4665 173.636 17.4558V22.9278C174.254 22.9171 175.193 22.8798 176.452 22.8158V25.9998H167.156V22.8158C168.382 22.8798 169.316 22.9171 169.956 22.9278V17.4558C169.316 17.4665 168.382 17.5038 167.156 17.5678V14.3838H176.452V17.5678Z" fill="white"/>
<path d="M152.375 24.624C152.737 24.08 153.036 23.5733 153.271 23.104C153.516 22.6346 153.751 22.0906 153.975 21.472C154.732 21.9093 155.612 22.2506 156.615 22.496C157.617 22.7413 158.551 22.864 159.415 22.864C160.3 22.864 160.924 22.7893 161.287 22.64C161.649 22.48 161.831 22.3093 161.831 22.128C161.831 21.4773 160.839 21.152 158.855 21.152C156.679 21.152 155.1 20.928 154.119 20.48C153.137 20.0213 152.647 19.2853 152.647 18.272C152.647 16.832 153.244 15.7706 154.439 15.088C155.633 14.4053 157.185 14.064 159.095 14.064C160.204 14.064 161.34 14.208 162.503 14.496C163.676 14.7733 164.732 15.1573 165.671 15.648C165.361 16.352 165.036 17.2106 164.695 18.224C164.631 18.4373 164.577 18.5973 164.535 18.704C163.991 18.2666 163.169 17.904 162.071 17.616C160.972 17.3173 160.001 17.168 159.159 17.168C158.145 17.168 157.463 17.2373 157.111 17.376C156.759 17.504 156.583 17.696 156.583 17.952C156.583 18.208 156.823 18.416 157.303 18.576C157.793 18.7253 158.497 18.8 159.415 18.8C161.676 18.8 163.319 19.0613 164.343 19.584C165.367 20.096 165.879 20.8853 165.879 21.952C165.879 23.4453 165.335 24.5226 164.247 25.184C163.159 25.8346 161.511 26.16 159.303 26.16C158.119 26.16 156.913 26.032 155.687 25.776C154.46 25.5093 153.356 25.1253 152.375 24.624Z" fill="white"/>
<path d="M142.276 23.0718C146.329 23.0505 149.268 22.9918 151.092 22.8958C151.017 23.3331 150.969 23.7865 150.948 24.2558C150.937 24.7145 150.932 25.2958 150.932 25.9998H138.5C138.585 23.9305 138.628 21.9945 138.628 20.1918C138.628 18.3891 138.585 16.4531 138.5 14.3838H150.932V17.2798H142.276V18.8158C142.788 18.8265 143.545 18.8318 144.548 18.8318C146.244 18.8318 147.998 18.7998 149.812 18.7358V21.4878C147.998 21.4238 146.244 21.3918 144.548 21.3918C143.545 21.3918 142.788 21.3971 142.276 21.4078V23.0718Z" fill="white"/>
<path d="M129.338 14.208C131.344 14.208 132.928 14.4533 134.09 14.944C135.253 15.424 136.064 16.096 136.522 16.96C136.992 17.8133 137.226 18.864 137.226 20.112C137.226 21.296 136.96 22.3307 136.426 23.216C135.893 24.1013 135.093 24.7893 134.026 25.28C132.96 25.76 131.648 26 130.09 26C129.141 26 128.176 26 127.194 26C126.213 26 125.221 25.9947 124.218 25.984C124.304 23.8827 124.346 21.9253 124.346 20.112C124.346 18.2773 124.304 16.3627 124.218 14.368C125.488 14.2613 127.194 14.208 129.338 14.208ZM130.538 22.816C131.53 22.816 132.192 22.576 132.522 22.096C132.853 21.616 133.018 20.9547 133.018 20.112C133.018 19.3013 132.842 18.6453 132.49 18.144C132.149 17.6427 131.498 17.392 130.538 17.392C129.504 17.392 128.73 17.424 128.218 17.488V22.816H130.538Z" fill="white"/>
<path d="M119.728 17.7438C118.053 17.6905 116.427 17.6585 114.848 17.6478V25.9998H110.848V17.6478C109.259 17.6585 107.637 17.6905 105.984 17.7438V14.3838H119.728V17.7438Z" fill="white"/>
<path d="M91.8433 24.624C92.2059 24.08 92.5046 23.5733 92.7393 23.104C92.9846 22.6346 93.2193 22.0906 93.4433 21.472C94.2006 21.9093 95.0806 22.2506 96.0833 22.496C97.0859 22.7413 98.0193 22.864 98.8833 22.864C99.7686 22.864 100.393 22.7893 100.755 22.64C101.118 22.48 101.299 22.3093 101.299 22.128C101.299 21.4773 100.307 21.152 98.3233 21.152C96.1473 21.152 94.5686 20.928 93.5873 20.48C92.6059 20.0213 92.1153 19.2853 92.1153 18.272C92.1153 16.832 92.7126 15.7706 93.9073 15.088C95.1019 14.4053 96.6539 14.064 98.5633 14.064C99.6726 14.064 100.809 14.208 101.971 14.496C103.145 14.7733 104.201 15.1573 105.139 15.648C104.83 16.352 104.505 17.2106 104.163 18.224C104.099 18.4373 104.046 18.5973 104.003 18.704C103.459 18.2666 102.638 17.904 101.539 17.616C100.441 17.3173 99.4699 17.168 98.6273 17.168C97.6139 17.168 96.9313 17.2373 96.5793 17.376C96.2273 17.504 96.0513 17.696 96.0513 17.952C96.0513 18.208 96.2913 18.416 96.7713 18.576C97.2619 18.7253 97.9659 18.8 98.8833 18.8C101.145 18.8 102.787 19.0613 103.811 19.584C104.835 20.096 105.347 20.8853 105.347 21.952C105.347 23.4453 104.803 24.5226 103.715 25.184C102.627 25.8346 100.979 26.16 98.7713 26.16C97.5873 26.16 96.3819 26.032 95.1553 25.776C93.9286 25.5093 92.8246 25.1253 91.8433 24.624Z" fill="white"/>
<path d="M90.5611 17.5678C89.2918 17.5038 88.3531 17.4665 87.7451 17.4558V22.9278C88.3638 22.9171 89.3025 22.8798 90.5611 22.8158V25.9998H81.2651V22.8158C82.4918 22.8798 83.4251 22.9171 84.0651 22.9278V17.4558C83.4251 17.4665 82.4918 17.5038 81.2651 17.5678V14.3838H90.5611V17.5678Z" fill="white"/>
<path d="M79.986 14.3999C79.9113 16.2026 79.874 18.1332 79.874 20.1919C79.874 22.2612 79.9113 24.1972 79.986 25.9999H74.258L70.386 17.2639L70.674 25.9999H66.562C66.6473 23.9306 66.69 21.9946 66.69 20.1919C66.69 18.3999 66.6473 16.4692 66.562 14.3999H72.45L76.338 23.3759L76.066 14.3999H79.986Z" fill="white"/>
<path d="M58.1508 26.1599C55.7081 26.1599 53.9108 25.6319 52.7588 24.5759C51.6068 23.5092 51.0308 22.0159 51.0308 20.0959C51.0308 18.1972 51.6014 16.7145 52.7428 15.6479C53.8948 14.5812 55.6974 14.0479 58.1508 14.0479C60.6148 14.0479 62.4174 14.5812 63.5588 15.6479C64.7108 16.7145 65.2868 18.1972 65.2868 20.0959C65.2868 22.0265 64.7161 23.5199 63.5748 24.5759C62.4334 25.6319 60.6254 26.1599 58.1508 26.1599ZM58.1508 22.8959C59.3348 22.8959 60.1881 22.6719 60.7108 22.2239C61.2334 21.7652 61.4948 21.0559 61.4948 20.0959C61.4948 19.1572 61.2334 18.4585 60.7108 17.9999C60.1881 17.5412 59.3348 17.3119 58.1508 17.3119C56.9774 17.3119 56.1294 17.5412 55.6068 17.9999C55.0841 18.4585 54.8228 19.1572 54.8228 20.0959C54.8228 21.0452 55.0841 21.7492 55.6068 22.2079C56.1294 22.6665 56.9774 22.8959 58.1508 22.8959Z" fill="white"/>
<path d="M49.7486 17.5678C48.4793 17.5038 47.5406 17.4665 46.9326 17.4558V22.9278C47.5513 22.9171 48.49 22.8798 49.7486 22.8158V25.9998H40.4526V22.8158C41.6793 22.8798 42.6126 22.9171 43.2526 22.9278V17.4558C42.6126 17.4665 41.6793 17.5038 40.4526 17.5678V14.3838H49.7486V17.5678Z" fill="white"/>
<path d="M25.6714 24.624C26.0341 24.08 26.3327 23.5733 26.5674 23.104C26.8127 22.6346 27.0474 22.0906 27.2714 21.472C28.0287 21.9093 28.9087 22.2506 29.9114 22.496C30.9141 22.7413 31.8474 22.864 32.7114 22.864C33.5967 22.864 34.2207 22.7893 34.5834 22.64C34.9461 22.48 35.1274 22.3093 35.1274 22.128C35.1274 21.4773 34.1354 21.152 32.1514 21.152C29.9754 21.152 28.3967 20.928 27.4154 20.48C26.4341 20.0213 25.9434 19.2853 25.9434 18.272C25.9434 16.832 26.5407 15.7706 27.7354 15.088C28.9301 14.4053 30.4821 14.064 32.3914 14.064C33.5007 14.064 34.6367 14.208 35.7994 14.496C36.9727 14.7733 38.0287 15.1573 38.9674 15.648C38.6581 16.352 38.3327 17.2106 37.9914 18.224C37.9274 18.4373 37.8741 18.5973 37.8314 18.704C37.2874 18.2666 36.4661 17.904 35.3674 17.616C34.2687 17.3173 33.2981 17.168 32.4554 17.168C31.4421 17.168 30.7594 17.2373 30.4074 17.376C30.0554 17.504 29.8794 17.696 29.8794 17.952C29.8794 18.208 30.1194 18.416 30.5994 18.576C31.0901 18.7253 31.7941 18.8 32.7114 18.8C34.9727 18.8 36.6154 19.0613 37.6394 19.584C38.6634 20.096 39.1754 20.8853 39.1754 21.952C39.1754 23.4453 38.6314 24.5226 37.5434 25.184C36.4554 25.8346 34.8074 26.16 32.5994 26.16C31.4154 26.16 30.2101 26.032 28.9834 25.776C27.7567 25.5093 26.6527 25.1253 25.6714 24.624Z" fill="white"/>
<path d="M24.3893 17.5678C23.1199 17.5038 22.1813 17.4665 21.5733 17.4558V22.9278C22.1919 22.9171 23.1306 22.8798 24.3893 22.8158V25.9998H15.0933V22.8158C16.3199 22.8798 17.2533 22.9171 17.8933 22.9278V17.4558C17.2533 17.4665 16.3199 17.5038 15.0933 17.5678V14.3838H24.3893V17.5678Z" fill="white"/>
<path d="M14.24 14.3838L13.184 16.8318C12.256 18.9971 11.5253 20.7305 10.992 22.0318C10.4587 23.3331 9.968 24.6558 9.52 25.9998H4.736C4.29867 24.6771 3.81333 23.3705 3.28 22.0798C2.75733 20.7785 2.05333 19.1145 1.168 17.0878C1.01867 16.7465 0.629333 15.8451 0 14.3838H4.448C4.768 15.4185 5.24267 16.7465 5.872 18.3678C6.42667 19.7971 6.87467 21.0345 7.216 22.0798C7.44 21.3438 7.70667 20.5598 8.016 19.7278C8.336 18.8851 8.528 18.3731 8.592 18.1918C9.21067 16.5598 9.664 15.2905 9.952 14.3838H14.24Z" fill="white"/>
</g>
<defs>
<linearGradient id="paint0_linear_1_1715" x1="344.851" y1="85.1631" x2="373.952" y2="-39.4379" gradientUnits="userSpaceOnUse">
<stop stop-color="#222222"/>
<stop offset="1" stop-color="#999999"/>
</linearGradient>
<clipPath id="clip0_1_1715">
<rect width="696" height="40" fill="white"/>
</clipPath>
</defs>
</svg>
