<svg width="23" height="23" viewBox="0 0 23 23" fill="none" xmlns="http://www.w3.org/2000/svg">
<path d="M14.3753 21.8019H8.62533C3.42158 21.8019 1.19824 19.5786 1.19824 14.3748V8.62484C1.19824 3.42109 3.42158 1.19775 8.62533 1.19775H10.542C10.9349 1.19775 11.2607 1.52359 11.2607 1.9165C11.2607 2.30942 10.9349 2.63525 10.542 2.63525H8.62533C4.20741 2.63525 2.63574 4.20692 2.63574 8.62484V14.3748C2.63574 18.7928 4.20741 20.3644 8.62533 20.3644H14.3753C18.7932 20.3644 20.3649 18.7928 20.3649 14.3748V12.4582C20.3649 12.0653 20.6907 11.7394 21.0837 11.7394C21.4766 11.7394 21.8024 12.0653 21.8024 12.4582V14.3748C21.8024 19.5786 19.5791 21.8019 14.3753 21.8019Z" fill="#14151A" stroke="#14151A" stroke-width="0.5"/>
<path d="M8.14602 16.953C7.56144 16.953 7.02477 16.7422 6.63185 16.3589C6.16227 15.8893 5.96102 15.2089 6.06644 14.4901L6.47852 11.6055C6.55519 11.0497 6.91935 10.3309 7.31227 9.93803L14.8639 2.38637C16.771 0.479284 18.7069 0.479284 20.6139 2.38637C21.6585 3.43095 22.1281 4.4947 22.0323 5.55845C21.946 6.42095 21.486 7.26428 20.6139 8.12678L13.0623 15.6785C12.6694 16.0714 11.9506 16.4355 11.3948 16.5122L8.51019 16.9243C8.3856 16.953 8.26102 16.953 8.14602 16.953ZM15.8798 3.4022L8.3281 10.9539C8.14602 11.136 7.93519 11.5576 7.89685 11.8068L7.48477 14.6914C7.44644 14.9693 7.50394 15.1993 7.64769 15.343C7.79144 15.4868 8.02144 15.5443 8.29935 15.5059L11.1839 15.0939C11.4331 15.0555 11.8644 14.8447 12.0369 14.6626L19.5885 7.11095C20.2114 6.48803 20.5373 5.9322 20.5852 5.4147C20.6427 4.79178 20.3169 4.13053 19.5885 3.39262C18.0552 1.85928 17.001 2.29053 15.8798 3.4022Z" fill="#14151A" stroke="#14151A" stroke-width="0.5"/>
<path d="M19.0227 9.42051C18.9557 9.42051 18.8886 9.41093 18.8311 9.39176C16.3107 8.6826 14.3077 6.67968 13.5986 4.15926C13.4932 3.77593 13.7136 3.38301 14.0969 3.26801C14.4802 3.1626 14.8732 3.38301 14.9786 3.76635C15.5536 5.8076 17.1732 7.42718 19.2144 8.00218C19.5977 8.1076 19.8182 8.5101 19.7127 8.89343C19.6265 9.21926 19.339 9.42051 19.0227 9.42051Z" fill="#14151A" stroke="#14151A" stroke-width="0.5"/>
</svg>
