<svg width="27" height="26" viewBox="0 0 27 26" fill="none" xmlns="http://www.w3.org/2000/svg">
<path d="M5.99955 13.9967C7.51023 13.455 9.66834 13.0867 12.4955 12.9133C8.95617 12.7183 6.36643 12.3717 4.70469 11.83C6.75489 11.2883 9.6036 10.9417 13.2508 10.7683C10.5748 10.5733 8.67561 10.2267 7.53181 9.685C9.04249 9.14333 11.2222 8.775 14.0493 8.60167C10.5316 8.42833 7.94185 8.08167 6.28011 7.54C8.33031 6.99833 11.179 6.63 14.8262 6.45667C12.1502 6.26167 10.251 5.915 9.10723 5.37333C10.6179 4.83167 12.7976 4.485 15.6032 4.31167C12.0854 4.11667 9.4957 3.77 7.83395 3.22833C9.88416 2.68667 12.7329 2.31833 16.3801 2.145C13.704 1.97167 11.8049 1.625 10.6611 1.08333C12.1718 0.541667 14.3514 0.173333 17.157 0H24.3867L17.3081 19.5H26.4585L22.9839 26H7.7692C4.27306 25.805 1.68333 25.4583 0 24.9167C2.05021 24.375 4.89892 24.0283 8.54613 23.855C5.87007 23.66 3.94935 23.3133 2.80555 22.7717C4.31622 22.23 6.49592 21.8617 9.32305 21.6883C5.78374 21.515 3.19401 21.1683 1.53226 20.6267C3.60405 20.085 6.47434 19.7167 10.1 19.5433C7.40233 19.3483 5.48161 19.0017 4.35939 18.46C5.89165 17.9183 8.07134 17.5717 10.8769 17.3983C7.38074 17.2033 4.79101 16.8567 3.10768 16.315C5.13631 15.7733 7.98502 15.405 11.6754 15.2317C8.97775 15.0583 7.07861 14.7117 5.95639 14.17L5.99955 13.9967Z" fill="#222222"/>
</svg>
