<svg width="230" height="121" viewBox="0 0 230 121" fill="none" xmlns="http://www.w3.org/2000/svg">
<path d="M0 0H230V112.655C230 117.264 226.264 121 221.655 121H8.34483C3.73611 121 0 117.264 0 112.655V0Z" fill="#F1F1F1"/>
<path d="M183.79 0H230V23.8346C230 36.5952 219.656 46.9397 206.895 46.9397C194.135 46.9397 183.79 36.5952 183.79 23.8346V0Z" fill="#D6D7DB"/>
<path d="M136.53 0H185.891V22.2593C185.891 35.8899 174.841 46.9397 161.21 46.9397C147.58 46.9397 136.53 35.8899 136.53 22.2593V0Z" fill="#E4E4E6"/>
<path d="M91.3696 0H138.63V23.3095C138.63 36.3601 128.05 46.9397 115 46.9397C101.949 46.9397 91.3696 36.3601 91.3696 23.3095V0Z" fill="#D6D7DB"/>
<path d="M46.21 0H93.4702V23.3095C93.4702 36.3601 82.8907 46.9397 69.8401 46.9397C56.7895 46.9397 46.21 36.3601 46.21 23.3095V0Z" fill="#E4E4E6"/>
<path d="M0 0H48.3105V22.7844C48.3105 36.125 37.4958 46.9397 24.1553 46.9397C10.8147 46.9397 0 36.125 0 22.7844V0Z" fill="#D6D7DB"/>
<path d="M103.856 69.8877L92.4199 81.2459" stroke="#D6D7DB" stroke-width="2.08621" stroke-linecap="round"/>
<path d="M103.855 81.2459L92.4196 69.8877" stroke="#D6D7DB" stroke-width="2.08621" stroke-linecap="round"/>
<path d="M138.631 69.8877L127.195 81.2459" stroke="#D6D7DB" stroke-width="2.08621" stroke-linecap="round"/>
<path d="M138.63 81.2459L127.195 69.8877" stroke="#D6D7DB" stroke-width="2.08621" stroke-linecap="round"/>
<path d="M108.173 89.7069C112.785 86.0424 119.315 86.0424 123.927 89.7069" stroke="#D6D7DB" stroke-width="2.08621" stroke-linecap="round"/>
</svg>
