<svg width="375" height="182" viewBox="0 0 375 182" fill="none" xmlns="http://www.w3.org/2000/svg">
<g clip-path="url(#clip0_1_1615)">
<path d="M116 45H259.656V127.468C259.656 132.18 255.836 136 251.124 136H124.532C119.82 136 116 132.18 116 127.468V45Z" fill="#F1F1F1"/>
<path d="M210.431 45H259.274V59.4323C259.274 72.92 248.34 83.8539 234.852 83.8539C221.365 83.8539 210.431 72.92 210.431 59.4323V45Z" fill="#D6D7DB"/>
<path d="M163.758 45H212.601V59.4323C212.601 72.92 201.667 83.8539 188.179 83.8539C174.692 83.8539 163.758 72.92 163.758 59.4323V45Z" fill="#E4E4E6"/>
<path d="M116 45H165.929V58.8896C165.929 72.677 154.752 83.8539 140.964 83.8539C127.177 83.8539 116 72.677 116 58.8896V45Z" fill="#D6D7DB"/>
<path d="M312.439 45H456.095V127.468C456.095 132.18 452.275 136 447.563 136H320.972C316.26 136 312.439 132.18 312.439 127.468V45Z" fill="#F1F1F1"/>
<path d="M360.197 45H409.041V59.4323C409.041 72.92 398.107 83.8539 384.619 83.8539C371.131 83.8539 360.197 72.92 360.197 59.4323V45Z" fill="#E4E4E6"/>
<path d="M312.439 45H362.368V58.8896C362.368 72.677 351.191 83.8539 337.404 83.8539C323.616 83.8539 312.439 72.677 312.439 58.8896V45Z" fill="#D6D7DB"/>
<path d="M-78.8408 45H64.8151V127.468C64.8151 132.18 60.995 136 56.2828 136H-70.3085C-75.0207 136 -78.8408 132.18 -78.8408 127.468V45Z" fill="#F1F1F1"/>
<path d="M15.5898 45H64.4331V59.4323C64.4331 72.92 53.4992 83.8539 40.0115 83.8539C26.5238 83.8539 15.5898 72.92 15.5898 59.4323V45Z" fill="#D6D7DB"/>
<path d="M-31.083 45H17.7603V59.4323C17.7603 72.92 6.82634 83.8539 -6.66136 83.8539C-20.1491 83.8539 -31.083 72.92 -31.083 59.4323V45Z" fill="#E4E4E6"/>
<path d="M254.122 41C279.594 41.0002 300.243 61.6498 300.243 87.1221C300.243 100.422 294.611 112.405 285.604 120.822L319.088 160.311C320.461 161.93 320.262 164.355 318.643 165.728L316.438 167.597C314.819 168.969 312.393 168.769 311.021 167.15L277.085 127.129C270.323 131.018 262.483 133.243 254.122 133.243C228.65 133.243 208 112.594 208 87.1221C208 61.6497 228.65 41 254.122 41ZM254.122 49.7852C233.502 49.7852 216.785 66.5016 216.785 87.1221C216.785 107.742 233.502 124.458 254.122 124.458C274.742 124.458 291.458 107.742 291.458 87.1221C291.458 66.5017 274.742 49.7853 254.122 49.7852Z" fill="#595959"/>
</g>
<defs>
<clipPath id="clip0_1_1615">
<rect width="375" height="182" fill="white"/>
</clipPath>
</defs>
</svg>
