<svg width="193" height="26" viewBox="0 0 193 26" fill="none" xmlns="http://www.w3.org/2000/svg">
<g clip-path="url(#clip0_0_1328)">
<path d="M5.99955 14.0831C7.51023 13.5414 9.66834 13.1731 12.4955 12.9998C8.95617 12.8048 6.36643 12.4581 4.70469 11.9164C6.75489 11.3748 9.6036 11.0281 13.2508 10.8548C10.5748 10.6598 8.67561 10.3131 7.53181 9.77143C9.04249 9.22976 11.2222 8.86143 14.0493 8.68809C10.5316 8.51476 7.94185 8.16809 6.28011 7.62643C8.33031 7.08476 11.179 6.71643 14.8262 6.54309C12.1502 6.34809 10.251 6.00143 9.10723 5.45976C10.6179 4.91809 12.7976 4.57143 15.6032 4.39809C12.0854 4.20309 9.4957 3.85643 7.83395 3.31476C9.88416 2.77309 12.7329 2.40476 16.3801 2.23143C13.704 2.05809 11.8049 1.71143 10.6611 1.16976C12.1718 0.628092 14.3514 0.259759 17.157 0.0864258H24.3867L17.3081 19.5864H26.4585L22.9839 26.0864H7.76921C4.27306 25.8914 1.68333 25.5448 0 25.0031C2.05021 24.4614 4.89892 24.1148 8.54613 23.9414C5.87007 23.7464 3.94935 23.3998 2.80555 22.8581C4.31623 22.3164 6.49592 21.9481 9.32305 21.7748C5.78374 21.6014 3.19401 21.2548 1.53226 20.7131C3.60405 20.1714 6.47434 19.8031 10.1 19.6298C7.40233 19.4348 5.48161 19.0881 4.35939 18.5464C5.89165 18.0048 8.07134 17.6581 10.8769 17.4848C7.38074 17.2898 4.79101 16.9431 3.10768 16.4014C5.13631 15.8598 7.98502 15.4914 11.6754 15.3181C8.97775 15.1448 7.07861 14.7981 5.95639 14.2564L5.99955 14.0831Z" fill="#222222"/>
<path d="M36.0189 8.66661C32.5011 8.49327 29.9114 8.14661 28.2497 7.60494C30.2999 7.06327 33.1486 6.69494 36.7958 6.52161C34.1197 6.32661 32.2206 5.97994 31.0768 5.43827C32.5875 4.89661 34.7672 4.54994 37.5727 4.37661C34.055 4.18161 31.4653 3.83494 29.8035 3.29327C31.8537 2.75161 34.7024 2.38327 38.3496 2.20994C35.6736 2.03661 33.7744 1.68994 32.6306 1.14827C34.1413 0.606608 36.321 0.238275 39.1265 0.0649414H46.3562L36.9253 26.0649H29.6956C26.1995 25.8699 23.6097 25.5233 21.9264 24.9816C23.9766 24.4399 26.8253 24.0933 30.4725 23.9199C27.7965 23.7249 25.8757 23.3783 24.7319 22.8366C26.2426 22.2949 28.4223 21.9266 31.2494 21.7533C27.7101 21.5799 25.1204 21.2333 23.4587 20.6916C25.5304 20.1499 28.4007 19.7816 32.0264 19.6083C29.3287 19.4133 27.408 19.0666 26.2858 18.5249C27.818 17.9833 29.9977 17.6366 32.8033 17.4633C29.3071 17.2683 26.7174 16.9216 25.0341 16.3799C27.0627 15.8383 29.9114 15.4699 33.5802 15.2966C30.9041 15.1233 29.005 14.7766 27.8828 14.2349C29.3935 13.6933 31.5516 13.3249 34.3571 13.1516C30.8394 12.9566 28.2497 12.6099 26.5879 12.0683C28.6381 11.5266 31.5084 11.1799 35.1556 11.0066C32.458 10.8116 30.5373 10.4649 29.415 9.92327C30.9257 9.38161 33.1054 9.01327 35.9325 8.83994L36.0189 8.66661Z" fill="#222222"/>
<path d="M48.8165 8.66661C45.3204 8.49327 42.7306 8.14661 41.0689 7.60494C43.1191 7.06327 45.9462 6.69494 49.5934 6.52161C46.9389 6.32661 45.0398 5.97994 43.896 5.43827C45.4067 4.89661 47.5648 4.54994 50.3703 4.37661C46.8526 4.18161 44.2629 3.83494 42.6227 3.29327C44.6729 2.75161 47.5216 2.38327 51.1473 2.20994C48.4712 2.03661 46.5721 1.68994 45.4498 1.14827C46.9605 0.606608 49.1186 0.238275 51.9242 0.0649414H59.1107L61.1609 10.3133L64.8729 0.0649414H72.1025L62.6716 26.0649H55.4851L53.4133 15.9033L49.7229 26.0649H42.4932C38.9971 25.8699 36.4289 25.5233 34.7456 24.9816C36.7742 24.4399 39.6014 24.0933 43.2701 23.9199C40.6157 23.7249 38.6949 23.3783 37.5512 22.8366C39.0618 22.2949 41.2415 21.9266 44.0471 21.7533C40.5293 21.5799 37.9396 21.2333 36.2779 20.6916C38.3497 20.1499 41.1984 19.7816 44.824 19.6083C42.1479 19.4133 40.2488 19.0666 39.105 18.5249C40.6373 17.9833 42.7954 17.6366 45.6009 17.4633C42.1048 17.2683 39.5366 16.9216 37.8533 16.3799C39.8819 15.8383 42.7306 15.4699 46.3994 15.2966C43.7234 15.1233 41.8242 14.7766 40.702 14.2349C42.2127 13.6933 44.3708 13.3249 47.1763 13.1516C43.6586 12.9566 41.0689 12.6099 39.4071 12.0683C41.4573 11.5266 44.306 11.1799 47.9533 11.0066C45.2772 10.8116 43.3781 10.4649 42.2343 9.92327C43.7449 9.38161 45.9246 9.01327 48.7302 8.83994L48.8165 8.66661Z" fill="#222222"/>
<path d="M66.5562 14.0831C68.0453 13.5414 70.1818 13.1731 72.9874 12.9998C69.4912 12.8048 66.9015 12.4581 65.2829 11.9164C67.3331 11.3748 70.1387 11.0281 73.7643 10.8548H73.7859C71.1314 10.6598 69.2323 10.3131 68.1316 9.77143C69.6423 9.22976 71.7788 8.86143 74.5844 8.68809C71.0882 8.51476 68.5417 8.16809 66.9015 7.62643C68.9301 7.08476 71.7572 6.71643 75.3829 6.54309C72.7284 6.34809 70.8508 6.00143 69.7502 5.45976C71.2609 4.91809 73.3974 4.57143 76.1814 4.39809C72.6852 4.20309 70.1387 3.85643 68.4985 3.31476C70.5487 2.77309 73.3758 2.40476 76.9799 2.23143C74.3254 2.05809 72.4478 1.71143 71.3472 1.16976C72.8579 0.628092 75.016 0.259759 77.7784 0.0864258H85.5476L82.5478 8.38476L89.6696 0.0864258H97.7841L86.195 13.0864L88.3531 26.0864H80.2602L79.1164 17.7881L76.1166 26.0864H68.3474C64.8729 25.8914 62.3047 25.5448 60.6646 25.0031C62.6932 24.4614 65.5203 24.1148 69.1459 23.9414C66.4915 23.7464 64.6139 23.3998 63.4917 22.8581C65.0024 22.3164 67.1389 21.9481 69.9444 21.7748H69.966C66.4483 21.6014 63.8586 21.2548 62.2184 20.7131C64.2686 20.1714 67.1173 19.8031 70.7214 19.6298H70.7429C68.0669 19.4348 66.1677 19.0881 65.0455 18.5464C66.5562 18.0048 68.7143 17.6581 71.4983 17.4848H71.5199C68.0237 17.2898 65.4556 16.9431 63.8154 16.4014C65.8224 15.8598 68.6496 15.4914 72.3184 15.3181C69.6639 15.1448 67.7647 14.7981 66.6857 14.2564L66.5562 14.0831Z" fill="#222222"/>
<path d="M96.554 7.58315C98.6042 7.04148 101.431 6.67315 105.079 6.49982C102.489 6.30482 100.633 5.93648 99.5106 5.41648C101 4.89648 103.115 4.52815 105.855 4.33315H105.877C102.964 4.09482 100.762 3.74815 99.2948 3.27148C101.345 2.72982 104.237 2.33982 107.97 2.07982C106.265 1.84148 104.992 1.51648 104.151 1.10482C105.683 0.563151 107.884 0.194818 110.776 0.0214844H123.487L122.149 6.52148H112.287L111.121 9.77148H117.466L119.624 13.1298L116.15 22.6848L111.596 26.0432H97.9999C94.5038 25.8482 91.914 25.5015 90.2307 24.9598C92.2809 24.4182 95.1296 24.0715 98.7768 23.8982C96.1008 23.7032 94.1801 23.3565 93.0363 22.8148C94.5469 22.2732 96.7266 21.9048 99.5538 21.7315H99.5753C96.0792 21.5582 93.5326 21.2115 91.8925 20.6698C93.9427 20.1282 96.7698 19.7598 100.374 19.5865H110.064C107.388 19.3915 105.489 19.0448 104.345 18.5032C105.877 17.9615 108.035 17.6148 110.841 17.4415H107.625C104.129 17.2465 101.561 16.8998 99.8775 16.3582C101.043 16.0548 102.489 15.7298 104.258 15.3832C101.453 15.1015 99.5106 14.6898 98.41 14.1482C99.5322 13.7365 101 13.4115 102.834 13.1515C99.1869 12.9348 96.554 12.5448 94.9138 12.0032C96.964 11.4615 99.8127 11.1148 103.46 10.9415C100.784 10.7465 98.8847 10.3998 97.7409 9.85815C99.2516 9.31648 101.431 8.94815 104.237 8.77482C100.741 8.60148 98.151 8.25482 96.4892 7.71315L96.554 7.58315Z" fill="#222222"/>
<path d="M120.466 9.74994C121.977 9.20827 124.156 8.83994 126.983 8.66661C123.466 8.49327 120.876 8.14661 119.214 7.60494C121.264 7.06327 124.113 6.69494 127.76 6.52161C125.084 6.32661 123.185 5.97994 122.041 5.43827C123.552 4.89661 125.732 4.54994 128.537 4.37661C125.019 4.18161 122.43 3.83494 120.768 3.29327C122.818 2.75161 125.667 2.38327 129.314 2.20994C126.638 2.03661 124.739 1.68994 123.595 1.14827C125.106 0.606608 127.285 0.238275 130.091 0.0649414H137.86L134.321 9.81494H137.86L141.4 0.0649414H149.169L139.738 26.0649H131.969L135.508 16.3149H131.969L128.429 26.0649H120.66C117.164 25.8699 114.574 25.5233 112.891 24.9816C114.941 24.4399 117.79 24.0933 121.437 23.9199C118.761 23.7249 116.84 23.3783 115.696 22.8366C117.207 22.2949 119.387 21.9266 122.214 21.7533C118.675 21.5799 116.085 21.2333 114.423 20.6916C116.495 20.1499 119.365 19.7816 122.991 19.6083C120.293 19.4133 118.372 19.0666 117.25 18.5249C118.783 17.9833 120.962 17.6366 123.768 17.4633C120.272 17.2683 117.682 16.9216 115.999 16.3799C118.027 15.8383 120.876 15.4699 124.545 15.2966C121.869 15.1233 119.969 14.7766 118.847 14.2349C120.358 13.6933 122.516 13.3249 125.322 13.1516H125.343C121.804 12.9566 119.214 12.6099 117.552 12.0683C119.603 11.5266 122.473 11.1799 126.12 11.0066C123.422 10.8116 121.502 10.4649 120.38 9.92327L120.466 9.74994Z" fill="#222222"/>
<path d="M145.219 9.75012C146.73 9.23012 148.845 8.86179 151.586 8.66679C148.133 8.47179 145.586 8.12512 143.968 7.60512C145.975 7.08512 148.78 6.71679 152.363 6.52179C149.773 6.32679 147.917 5.95846 146.795 5.43846C148.284 4.91846 150.399 4.55012 153.14 4.35512H153.161C150.248 4.11679 148.046 3.77012 146.579 3.29346C148.629 2.75179 151.521 2.36179 155.255 2.10179C153.55 1.86346 152.276 1.53846 151.435 1.12679C152.967 0.585124 155.168 0.21679 158.06 0.043457H168.311L170.426 3.40179L163.455 22.7068L158.88 26.0651H148.629C145.133 25.8701 142.543 25.5235 140.86 24.9818C142.5 24.5485 144.637 24.2235 147.313 23.9851H147.291C144.637 23.7468 142.759 23.3568 141.637 22.8151C142.91 22.3601 144.637 22.0135 146.838 21.7751H146.86C143.407 21.5801 140.838 21.1901 139.198 20.6485C141.248 20.1068 144.054 19.7385 147.636 19.5651C145.004 19.3701 143.126 19.0018 142.025 18.4818C143.536 17.9618 145.651 17.5935 148.413 17.4201C144.982 17.2251 142.435 16.8785 140.774 16.3368C142.781 15.7951 145.586 15.4268 149.19 15.2535C146.579 15.0585 144.723 14.7118 143.622 14.1918C145.09 13.6718 147.205 13.3035 149.967 13.1085C146.514 12.9135 143.968 12.5668 142.349 12.0251C144.356 11.5051 147.162 11.1368 150.744 10.9635C148.154 10.7685 146.277 10.4001 145.155 9.88012L145.219 9.75012ZM157.391 19.5001L162.096 6.50012H159.614L154.909 19.5001H157.391Z" fill="#222222"/>
<path d="M167.599 9.74994C169.11 9.20827 171.289 8.83994 174.117 8.66661C170.599 8.49327 168.009 8.14661 166.347 7.60494C168.398 7.06327 171.246 6.69494 174.893 6.52161C172.217 6.32661 170.318 5.97994 169.174 5.43827C170.685 4.89661 172.865 4.54994 175.67 4.37661C172.153 4.18161 169.563 3.83494 167.901 3.29327C169.951 2.75161 172.8 2.38327 176.447 2.20994C173.771 2.03661 171.872 1.68994 170.728 1.14827C172.239 0.606608 174.419 0.238275 177.224 0.0649414H190.799L192.957 3.42327L188.705 15.1449L184.13 18.5033H177.785L175.023 26.0649H167.793C164.297 25.8699 161.707 25.5233 160.024 24.9816C162.074 24.4399 164.923 24.0933 168.57 23.9199C165.894 23.7249 163.973 23.3783 162.83 22.8366C164.34 22.2949 166.52 21.9266 169.347 21.7533C165.808 21.5799 163.218 21.2333 161.556 20.6916C163.628 20.1499 166.498 19.7816 170.124 19.6083C167.426 19.4133 165.506 19.0666 164.383 18.5249C165.916 17.9833 168.095 17.6366 170.901 17.4633C167.405 17.2683 164.815 16.9216 163.132 16.3799C165.16 15.8383 168.009 15.4699 171.678 15.2966C169.002 15.1233 167.103 14.7766 165.98 14.2349C167.491 13.6933 169.649 13.3249 172.455 13.1516H172.476C168.937 12.9566 166.347 12.6099 164.686 12.0683C166.736 11.5266 169.606 11.1799 173.253 11.0066C170.556 10.8116 168.635 10.4649 167.513 9.92327L167.599 9.74994ZM182.641 11.9383L184.605 6.49994H182.123L180.159 11.9383H182.641Z" fill="#222222"/>
</g>
<defs>
<clipPath id="clip0_0_1328">
<rect width="193" height="26" fill="white"/>
</clipPath>
</defs>
</svg>
