<svg width="23" height="23" viewBox="0 0 23 23" fill="none" xmlns="http://www.w3.org/2000/svg">
<path d="M16.4512 8.26758C19.2708 8.48949 21.5105 10.7292 21.7324 13.5488C21.7463 13.7249 21.7493 13.3122 21.75 13.3252V15.1621C21.7503 16.8679 21.7505 17.909 21.4688 18.7764C20.9 20.5268 19.5277 21.8999 17.7773 22.4688C16.9099 22.7506 15.8682 22.7503 14.1621 22.75H8.83789C7.13209 22.7503 6.09101 22.7505 5.22363 22.4688C3.47311 21.9 2.10003 20.5269 1.53125 18.7764C1.24955 17.909 1.24973 16.8679 1.25 15.1621V14C1.25 11.078 3.42987 8.66462 6.25195 8.29785C6.66258 8.24467 7 8.58589 7 9C7 9.4141 6.66162 9.74305 6.25391 9.81543C4.26266 10.1682 2.75 11.9075 2.75 14V15C2.75 16.9197 2.75925 17.7018 2.95801 18.3135C3.37842 19.6072 4.39279 20.6216 5.68652 21.042C6.29823 21.2407 7.08037 21.25 9 21.25H14C15.9197 21.25 16.7018 21.2407 17.3135 21.042C18.6072 20.6216 19.6216 19.6072 20.042 18.3135C20.2407 17.7018 20.25 16.9197 20.25 15V13.3467C20.2494 13.3256 20.2471 13.7898 20.2373 13.667C20.0733 11.5829 18.4171 9.92672 16.333 9.7627C16.3129 9.76112 16.2923 9.76001 16.2705 9.75879C15.849 9.73517 15.5091 9.40147 15.5205 8.97949C15.5316 8.57343 15.8646 8.24187 16.2705 8.25781C16.3343 8.26032 16.3939 8.26307 16.4512 8.26758ZM10.6104 1.23438C10.9231 0.921932 11.4304 0.921963 11.7432 1.23438L15.5195 5.00977C15.8319 5.32237 15.8316 5.82983 15.5195 6.14258C15.2068 6.45528 14.6995 6.45512 14.3867 6.14258L11.9248 3.68066V16.2383C11.9248 16.6523 11.5888 16.988 11.1748 16.9883C10.7606 16.9883 10.4248 16.6525 10.4248 16.2383V3.68555L7.96777 6.14258C7.65507 6.45528 7.14777 6.45512 6.83496 6.14258C6.52247 5.82977 6.52227 5.32245 6.83496 5.00977L10.6104 1.23438Z" fill="#14151A"/>
<path d="M16.4512 8.26758L16.4708 8.01835H16.4708L16.4512 8.26758ZM21.7324 13.5488L21.9817 13.5292V13.5292L21.7324 13.5488ZM21.75 13.3252H22.0003L21.9997 13.3126L21.75 13.3252ZM21.75 15.1621H21.5V15.1621L21.75 15.1621ZM21.4688 18.7764L21.7065 18.8536L21.7065 18.8536L21.4688 18.7764ZM17.7773 22.4688L17.8546 22.7065L17.8546 22.7065L17.7773 22.4688ZM14.1621 22.75L14.1621 22.5H14.1621V22.75ZM8.83789 22.75V22.5H8.83785L8.83789 22.75ZM5.22363 22.4688L5.14638 22.7065L5.14641 22.7065L5.22363 22.4688ZM1.53125 18.7764L1.29348 18.8536L1.29349 18.8536L1.53125 18.7764ZM1.25 15.1621L1.5 15.1621V15.1621H1.25ZM1.25 14H1V14H1.25ZM6.25195 8.29785L6.21984 8.04992L6.21973 8.04994L6.25195 8.29785ZM7 9H7.25V9L7 9ZM6.25391 9.81543L6.29752 10.0616L6.2976 10.0616L6.25391 9.81543ZM2.75 14H2.5V14H2.75ZM2.95801 18.3135L2.72024 18.3907L2.72025 18.3907L2.95801 18.3135ZM5.68652 21.042L5.60926 21.2798L5.60927 21.2798L5.68652 21.042ZM9 21.25V21.5V21.5V21.25ZM17.3135 21.042L17.3907 21.2798L17.3907 21.2798L17.3135 21.042ZM20.042 18.3135L20.2798 18.3907L20.2798 18.3907L20.042 18.3135ZM20.25 13.3467H20.5001L20.4999 13.3394L20.25 13.3467ZM20.2373 13.667L19.9881 13.6866L19.9881 13.6868L20.2373 13.667ZM16.333 9.7627L16.3526 9.51347L16.3526 9.51346L16.333 9.7627ZM16.2705 9.75879L16.2845 9.50918H16.2845L16.2705 9.75879ZM15.5205 8.97949L15.2706 8.97267L15.2706 8.97276L15.5205 8.97949ZM16.2705 8.25781L16.2803 8.00801H16.2803L16.2705 8.25781ZM10.6104 1.23438L10.4337 1.05752L10.4336 1.0576L10.6104 1.23438ZM11.7432 1.23438L11.9199 1.05758L11.9199 1.05751L11.7432 1.23438ZM15.5195 5.00977L15.6964 4.83306L15.6963 4.83297L15.5195 5.00977ZM15.5195 6.14258L15.6963 6.31936L15.6965 6.31917L15.5195 6.14258ZM14.3867 6.14258L14.2099 6.31936L14.21 6.31943L14.3867 6.14258ZM11.9248 3.68066L12.1016 3.50389C12.0301 3.43239 11.9226 3.411 11.8291 3.44969C11.7357 3.48839 11.6748 3.57955 11.6748 3.68066H11.9248ZM11.9248 16.2383H12.1748H11.9248ZM11.1748 16.9883L11.1748 17.2383H11.175L11.1748 16.9883ZM10.4248 16.2383H10.1748H10.4248ZM10.4248 3.68555H10.6748C10.6748 3.58443 10.6139 3.49327 10.5205 3.45458C10.4271 3.41588 10.3195 3.43727 10.248 3.50877L10.4248 3.68555ZM6.83496 6.14258L6.65809 6.31927L6.65826 6.31943L6.83496 6.14258ZM6.83496 5.00977L7.01174 5.18654L6.83496 5.00977ZM16.4512 8.26758L16.4316 8.51681C19.1286 8.72907 21.2709 10.8714 21.4832 13.5684L21.7324 13.5488L21.9817 13.5292C21.7501 10.587 19.413 8.24991 16.4708 8.01835L16.4512 8.26758ZM21.7324 13.5488L21.4832 13.5684C21.4842 13.5811 21.4853 13.5934 21.4866 13.6044C21.4876 13.6124 21.4898 13.6308 21.4947 13.6504C21.4962 13.6562 21.4986 13.6651 21.5024 13.6756C21.5056 13.6845 21.513 13.7039 21.5271 13.726C21.5343 13.7375 21.5464 13.7546 21.5647 13.7722C21.5828 13.7897 21.6127 13.8133 21.6558 13.8285C21.7021 13.8447 21.7537 13.8475 21.8039 13.834C21.8511 13.8213 21.8849 13.7975 21.9059 13.7787C21.9439 13.7447 21.9613 13.7079 21.9666 13.6966C21.9739 13.6807 21.9781 13.6673 21.9802 13.6599C21.9845 13.6451 21.9867 13.6325 21.9876 13.6267C21.9912 13.605 21.9927 13.5804 21.9935 13.5661C21.9945 13.5479 21.9954 13.5271 21.996 13.5063C21.9974 13.4645 21.9983 13.4181 21.9989 13.3838C21.9992 13.3657 21.9994 13.3528 21.9996 13.3428C21.9997 13.3378 21.9997 13.3352 21.9998 13.3343C21.9998 13.3323 21.9997 13.3363 21.9994 13.3413C21.9993 13.3423 21.999 13.3479 21.9981 13.355C21.9979 13.3573 21.9966 13.3681 21.9934 13.3817C21.9913 13.3901 21.9837 13.4135 21.9776 13.4282C21.96 13.4605 21.8591 13.5498 21.7634 13.5745C21.658 13.5573 21.5433 13.4656 21.523 13.4297C21.5163 13.4138 21.5082 13.3886 21.506 13.3797C21.5028 13.3654 21.5017 13.354 21.5014 13.3518C21.5006 13.3445 21.5004 13.3387 21.5003 13.3378L21.75 13.3252L21.9997 13.3126C21.9996 13.3115 21.9993 13.3056 21.9985 13.2981C21.9983 13.2959 21.9971 13.2845 21.9939 13.2702C21.9917 13.2612 21.9836 13.236 21.9769 13.2201C21.9566 13.1842 21.842 13.0924 21.7365 13.0753C21.6408 13.1 21.5399 13.1893 21.5223 13.2216C21.5162 13.2363 21.5086 13.2597 21.5065 13.2681C21.5033 13.2817 21.502 13.2926 21.5018 13.2949C21.5009 13.3021 21.5005 13.3079 21.5005 13.3091C21.5001 13.3149 21.4999 13.3204 21.4999 13.3207C21.4998 13.3243 21.4998 13.3291 21.4997 13.3338C21.4995 13.3431 21.4992 13.359 21.499 13.375C21.4984 13.409 21.4975 13.4523 21.4963 13.4901C21.4957 13.509 21.495 13.5254 21.4943 13.5379C21.4934 13.5543 21.4929 13.5539 21.4942 13.546C21.4946 13.5436 21.4962 13.5338 21.4999 13.521C21.5017 13.5147 21.5056 13.5021 21.5126 13.4869C21.5175 13.4763 21.5347 13.44 21.5723 13.4062C21.5932 13.3876 21.6268 13.3639 21.6738 13.3512C21.7239 13.3377 21.7754 13.3405 21.8215 13.3567C21.8644 13.3718 21.8942 13.3953 21.9121 13.4127C21.9302 13.4301 21.9422 13.447 21.9493 13.4582C21.963 13.4798 21.9701 13.4985 21.9729 13.5064C21.9763 13.5159 21.9784 13.5237 21.9795 13.5281C21.9831 13.5421 21.9838 13.5512 21.9832 13.5459C21.9829 13.5437 21.9824 13.5385 21.9817 13.5292L21.7324 13.5488ZM21.75 13.3252H21.5V15.1621H21.75H22V13.3252H21.75ZM21.75 15.1621L21.5 15.1621C21.5003 16.8842 21.4976 17.8782 21.231 18.6991L21.4688 18.7764L21.7065 18.8536C22.0033 17.9397 22.0003 16.8516 22 15.1621L21.75 15.1621ZM21.4688 18.7764L21.231 18.6991C20.687 20.3735 19.3743 21.6869 17.7001 22.231L17.7773 22.4688L17.8546 22.7065C19.6811 22.1129 21.1131 20.6801 21.7065 18.8536L21.4688 18.7764ZM17.7773 22.4688L17.7001 22.231C16.8791 22.4977 15.8846 22.5003 14.1621 22.5L14.1621 22.75L14.1621 23C15.8519 23.0003 16.9406 23.0035 17.8546 22.7065L17.7773 22.4688ZM14.1621 22.75V22.5H8.83789V22.75V23H14.1621V22.75ZM8.83789 22.75L8.83785 22.5C7.11578 22.5003 6.12176 22.4976 5.30086 22.231L5.22363 22.4688L5.14641 22.7065C6.06026 23.0033 7.1484 23.0003 8.83793 23L8.83789 22.75ZM5.22363 22.4688L5.30089 22.231C3.62648 21.6869 2.31306 20.3735 1.76901 18.6991L1.53125 18.7764L1.29349 18.8536C1.88699 20.6802 3.31975 22.113 5.14638 22.7065L5.22363 22.4688ZM1.53125 18.7764L1.76902 18.6991C1.50242 17.8782 1.49973 16.8842 1.5 15.1621L1.25 15.1621L1 15.1621C0.999734 16.8516 0.996686 17.9397 1.29348 18.8536L1.53125 18.7764ZM1.25 15.1621H1.5V14H1.25H1V15.1621H1.25ZM1.25 14H1.5C1.5 11.2052 3.58505 8.89655 6.28417 8.54577L6.25195 8.29785L6.21973 8.04994C3.2747 8.43268 1 10.9507 1 14H1.25ZM6.25195 8.29785L6.28407 8.54578C6.52322 8.51481 6.75 8.71374 6.75 9L7 9L7.25 9C7.25 8.45803 6.80194 7.97453 6.21984 8.04992L6.25195 8.29785ZM7 9H6.75C6.75 9.26735 6.52562 9.51328 6.21021 9.56928L6.25391 9.81543L6.2976 10.0616C6.79762 9.97281 7.25 9.56086 7.25 9H7ZM6.25391 9.81543L6.21029 9.56926C4.10178 9.94285 2.5 11.7841 2.5 14H2.75H3C3 12.0309 4.42354 10.3936 6.29752 10.0616L6.25391 9.81543ZM2.75 14H2.5V15H2.75H3V14H2.75ZM2.75 15H2.5C2.5 16.8993 2.50611 17.7317 2.72024 18.3907L2.95801 18.3135L3.19577 18.2362C3.01239 17.6718 3 16.94 3 15H2.75ZM2.95801 18.3135L2.72025 18.3907C3.16538 19.7606 4.23942 20.8346 5.60926 21.2798L5.68652 21.042L5.76379 20.8042C4.54615 20.4085 3.59145 19.4539 3.19577 18.2362L2.95801 18.3135ZM5.68652 21.042L5.60927 21.2798C6.26831 21.4939 7.10073 21.5 9 21.5V21.25V21C7.06001 21 6.32815 20.9876 5.76378 20.8042L5.68652 21.042ZM9 21.25V21.5H14V21.25V21H9V21.25ZM14 21.25V21.5C15.8993 21.5 16.7317 21.4939 17.3907 21.2798L17.3135 21.042L17.2362 20.8042C16.6718 20.9876 15.94 21 14 21V21.25ZM17.3135 21.042L17.3907 21.2798C18.7606 20.8346 19.8346 19.7606 20.2798 18.3907L20.042 18.3135L19.8042 18.2362C19.4085 19.4539 18.4539 20.4086 17.2362 20.8042L17.3135 21.042ZM20.042 18.3135L20.2798 18.3907C20.4939 17.7317 20.5 16.8993 20.5 15H20.25H20C20 16.94 19.9876 17.6718 19.8042 18.2362L20.042 18.3135ZM20.25 15H20.5V13.3467H20.25H20V15H20.25ZM20.25 13.3467L20.4999 13.3394C20.4999 13.3384 20.4998 13.3366 20.4997 13.3344C20.4997 13.3337 20.4994 13.3272 20.4985 13.3192C20.4985 13.3187 20.4969 13.3018 20.4915 13.2816C20.4868 13.2658 20.4611 13.2121 20.435 13.1778C20.3279 13.1084 20.1112 13.1381 20.0426 13.2063C20.0271 13.2327 20.0109 13.273 20.0074 13.2854C20.0058 13.2923 20.0036 13.3035 20.0029 13.3078C20.0017 13.3156 20.0011 13.3218 20.0009 13.3239C20.0005 13.3288 20.0003 13.3328 20.0002 13.3339C20.0001 13.3356 20.0001 13.337 20.0001 13.3378C20 13.3396 20 13.3411 19.9999 13.3421C19.9998 13.3458 19.9998 13.351 19.9997 13.356C19.9996 13.3668 19.9994 13.3831 19.9991 13.4021C19.9987 13.4407 19.998 13.4922 19.9971 13.5402C19.9962 13.59 19.995 13.6306 19.9938 13.6504C19.9935 13.6555 19.9934 13.6549 19.9938 13.6514C19.994 13.6503 19.9949 13.6425 19.9972 13.632C19.9983 13.6271 20.001 13.6152 20.0065 13.6004C20.0093 13.5928 20.0142 13.5804 20.0223 13.5659C20.0294 13.5532 20.0452 13.5271 20.0736 13.5016C20.1035 13.4748 20.1599 13.438 20.2394 13.4377C20.3189 13.4374 20.3756 13.4736 20.4057 13.5002C20.4343 13.5254 20.4503 13.5513 20.4575 13.564C20.4657 13.5784 20.4708 13.5908 20.4736 13.5982C20.4792 13.613 20.482 13.6248 20.4831 13.6297C20.4845 13.6356 20.4853 13.6402 20.4857 13.6427C20.487 13.6504 20.487 13.6538 20.4865 13.6472L20.2373 13.667L19.9881 13.6868C19.9888 13.6955 19.99 13.7098 19.9924 13.7241C19.9929 13.7274 19.9963 13.7499 20.0061 13.7756C20.0091 13.7835 20.0143 13.7961 20.0226 13.8108C20.0299 13.8237 20.0461 13.8497 20.0748 13.8751C20.105 13.9017 20.1619 13.938 20.2415 13.9377C20.3211 13.9374 20.3777 13.9006 20.4077 13.8736C20.4362 13.848 20.4521 13.8218 20.4593 13.8088C20.4675 13.7941 20.4726 13.7814 20.4755 13.7736C20.4812 13.7581 20.4842 13.7453 20.4855 13.7394C20.4883 13.7266 20.4897 13.7159 20.4903 13.7111C20.4916 13.7001 20.4924 13.6891 20.4928 13.6812C20.4948 13.6491 20.4961 13.598 20.497 13.5498C20.498 13.4997 20.4987 13.4467 20.4991 13.408C20.4993 13.3884 20.4995 13.3729 20.4997 13.3628C20.4997 13.3603 20.4997 13.3583 20.4997 13.3567C20.4998 13.3559 20.4998 13.3553 20.4998 13.3549C20.4998 13.3546 20.4998 13.3545 20.4998 13.3543C20.4998 13.3542 20.4998 13.3542 20.4998 13.3542C20.4998 13.3542 20.4998 13.3543 20.4998 13.3545C20.4998 13.3547 20.4998 13.3552 20.4997 13.3557C20.4997 13.3563 20.4997 13.3574 20.4996 13.3589C20.4996 13.3597 20.4994 13.3635 20.4989 13.3683C20.4988 13.3703 20.4982 13.3764 20.497 13.3842C20.4963 13.3885 20.4941 13.3997 20.4925 13.4065C20.489 13.419 20.4728 13.4593 20.4573 13.4856C20.3888 13.5539 20.172 13.5835 20.065 13.5141C20.0388 13.4799 20.0132 13.4262 20.0084 13.4104C20.003 13.3902 20.0015 13.3733 20.0014 13.3729C20.0006 13.365 20.0003 13.3586 20.0003 13.3581C20.0002 13.3561 20.0001 13.3546 20.0001 13.354L20.25 13.3467ZM20.2373 13.667L20.4865 13.6474C20.3129 11.4407 18.5593 9.68714 16.3526 9.51347L16.333 9.7627L16.3134 10.0119C18.2749 10.1663 19.8337 11.7251 19.9881 13.6866L20.2373 13.667ZM16.333 9.7627L16.3526 9.51346C16.3291 9.51162 16.3051 9.51033 16.2845 9.50918L16.2705 9.75879L16.2565 10.0084C16.2794 10.0097 16.2968 10.0106 16.3134 10.0119L16.333 9.7627ZM16.2705 9.75879L16.2845 9.50918C15.9835 9.49231 15.7631 9.25885 15.7704 8.98622L15.5205 8.97949L15.2706 8.97276C15.2552 9.54409 15.7146 9.97803 16.2565 10.0084L16.2705 9.75879ZM15.5205 8.97949L15.7704 8.98632C15.778 8.71017 16.003 8.4975 16.2607 8.50762L16.2705 8.25781L16.2803 8.00801C15.7262 7.98624 15.2852 8.43668 15.2706 8.97267L15.5205 8.97949ZM16.2705 8.25781L16.2607 8.50762C16.3239 8.51011 16.3794 8.5127 16.4316 8.51681L16.4512 8.26758L16.4708 8.01835C16.4083 8.01343 16.3448 8.01054 16.2803 8.00801L16.2705 8.25781ZM10.6104 1.23438L10.7871 1.41123C11.0021 1.19633 11.3513 1.19633 11.5665 1.41124L11.7432 1.23438L11.9199 1.05751C11.5095 0.6476 10.844 0.647534 10.4337 1.05752L10.6104 1.23438ZM11.7432 1.23438L11.5664 1.41117L15.3428 5.18657L15.5195 5.00977L15.6963 4.83297L11.9199 1.05758L11.7432 1.23438ZM15.5195 5.00977L15.3427 5.18647C15.5574 5.40135 15.5574 5.75071 15.3426 5.96598L15.5195 6.14258L15.6965 6.31917C16.1059 5.90894 16.1064 5.24339 15.6964 4.83306L15.5195 5.00977ZM15.5195 6.14258L15.3428 5.9658C15.1278 6.1808 14.7787 6.18081 14.5634 5.96573L14.3867 6.14258L14.21 6.31943C14.6204 6.72943 15.2859 6.72976 15.6963 6.31936L15.5195 6.14258ZM14.3867 6.14258L14.5635 5.9658L12.1016 3.50389L11.9248 3.68066L11.748 3.85744L14.2099 6.31936L14.3867 6.14258ZM11.9248 3.68066H11.6748V16.2383H11.9248H12.1748V3.68066H11.9248ZM11.9248 16.2383H11.6748C11.6748 16.5141 11.4508 16.7381 11.1746 16.7383L11.1748 16.9883L11.175 17.2383C11.7267 17.2379 12.1748 16.7906 12.1748 16.2383H11.9248ZM11.1748 16.9883L11.1748 16.7383C10.8987 16.7383 10.6748 16.5144 10.6748 16.2383H10.4248H10.1748C10.1748 16.7906 10.6226 17.2382 11.1748 17.2383L11.1748 16.9883ZM10.4248 16.2383H10.6748V3.68555H10.4248H10.1748V16.2383H10.4248ZM10.4248 3.68555L10.248 3.50877L7.791 5.9658L7.96777 6.14258L8.14455 6.31936L10.6016 3.86232L10.4248 3.68555ZM7.96777 6.14258L7.791 5.9658C7.576 6.1808 7.22693 6.18081 7.01166 5.96573L6.83496 6.14258L6.65826 6.31943C7.0686 6.72943 7.73414 6.72976 8.14455 6.31936L7.96777 6.14258ZM6.83496 6.14258L7.01183 5.96589C6.79676 5.7506 6.79677 5.40151 7.01174 5.18654L6.83496 5.00977L6.65818 4.83299C6.24778 5.2434 6.24818 5.90894 6.6581 6.31927L6.83496 6.14258ZM6.83496 5.00977L7.01174 5.18654L10.7871 1.41115L10.6104 1.23438L10.4336 1.0576L6.65818 4.83299L6.83496 5.00977Z" fill="#14151A"/>
</svg>
