<svg width="26" height="26" viewBox="0 0 26 26" fill="none" xmlns="http://www.w3.org/2000/svg">
<path d="M11.404 19.3985C11.4333 19.5163 11.4965 19.6229 11.5858 19.705C11.6752 19.7872 11.7866 19.8413 11.9064 19.8607C12.0262 19.88 12.1491 19.8638 12.2597 19.8139C12.3704 19.7641 12.464 19.6828 12.5288 19.5803L12.9442 18.9237L14.2016 20.1815C14.3269 20.3024 14.4947 20.3693 14.6688 20.3677C14.8429 20.3661 15.0094 20.2962 15.1325 20.173C15.2556 20.0499 15.3254 19.8833 15.3269 19.7092C15.3284 19.5351 15.2615 19.3673 15.1405 19.2421L13.8832 17.9827L14.5398 17.5668C14.6423 17.5019 14.7236 17.4083 14.7734 17.2976C14.8232 17.1869 14.8394 17.064 14.82 16.9442C14.8006 16.8244 14.7464 16.7129 14.6642 16.6237C14.5819 16.5344 14.4753 16.4712 14.3575 16.442L11.4279 15.7158C11.3243 15.6902 11.2159 15.6918 11.1131 15.7205C11.0103 15.7491 10.9167 15.8038 10.8412 15.8792C10.7658 15.9547 10.7111 16.0483 10.6825 16.1511C10.6539 16.2539 10.6523 16.3623 10.6779 16.4659L11.404 19.3985Z" fill="white"/>
<path d="M24.5419 22.6916C24.3342 22.7332 24.0819 22.7764 23.7914 22.8206C23.893 20.9112 23.9651 18.2503 23.9671 17.2778C23.9671 16.0839 23.8564 13.2905 23.7162 11.8681C23.9158 11.8142 24.1073 11.7338 24.2855 11.6289C24.3617 11.572 24.4378 11.5131 24.5089 11.4507C25.2062 10.853 25.6556 10.0765 25.7785 9.26301C25.886 8.59619 25.9576 7.92405 25.9928 7.24953C25.9928 7.22973 25.9928 7.21043 25.9953 7.19063C25.9953 7.15711 25.9953 7.12309 25.9953 7.08906C25.9863 6.70571 25.8513 6.33598 25.6114 6.03687C25.5637 5.97594 25.5124 5.915 25.4591 5.85609C25.2534 5.62707 25.0173 5.37723 24.7573 5.11367C24.288 4.63684 23.7051 4.07875 22.9753 3.40641C21.9369 2.4507 21.0314 1.64988 20.2839 1.02477C19.5451 0.411836 18.7138 0.0771875 17.8744 0.0548438H17.8566C16.2453 0.0182813 14.6208 0 12.9994 0C11.3779 0 9.74937 0.0182813 8.13909 0.0543359H8.12284C7.28445 0.0761719 6.45265 0.409805 5.7153 1.02375C4.96577 1.64785 4.06187 2.44918 3.02085 3.40539C2.29062 4.07773 1.70765 4.63582 1.23944 5.11164C0.979445 5.3752 0.743312 5.62504 0.536632 5.85508C0.485851 5.91348 0.43507 5.97391 0.387335 6.0318C0.152245 6.32397 0.0171424 6.68389 0.00190577 7.05859C-0.000635256 7.10426 -0.000635256 7.15004 0.00190577 7.1957V7.21602C0.00165486 7.21787 0.00165486 7.21975 0.00190577 7.2216C0.0366294 7.90566 0.108677 8.58731 0.217726 9.26352C0.338078 10.076 0.787492 10.853 1.48726 11.4507C1.56038 11.513 1.63503 11.5725 1.7112 11.6294C1.7112 11.6294 1.89097 11.762 2.28402 11.8787C2.14234 13.3006 2.03417 16.086 2.03062 17.2809C2.03062 18.2493 2.10374 20.9112 2.20581 22.8206C1.91534 22.7764 1.66296 22.7327 1.45527 22.6916C1.139 22.63 0.811228 22.6962 0.54363 22.8757C0.276032 23.0552 0.0903852 23.3333 0.0272869 23.6492C-0.0358114 23.9652 0.0287741 24.2933 0.206919 24.5618C0.385064 24.8302 0.662273 25.0172 0.977921 25.0819C2.06972 25.2997 4.07558 25.5389 6.34804 25.7202C8.6205 25.9015 10.798 26 12.5423 26C12.6991 26 12.8523 25.9992 13.0019 25.9975C16.8064 26.0376 22.788 25.5282 25.0218 25.0834C25.3375 25.0188 25.6147 24.8318 25.7928 24.5633C25.971 24.2948 26.0356 23.9667 25.9725 23.6508C25.9094 23.3348 25.7237 23.0567 25.4561 22.8772C25.1885 22.6978 24.8608 22.6316 24.5445 22.6931L24.5419 22.6916ZM2.12507 8.96594V8.95324C2.03077 8.3691 1.9672 7.78042 1.93464 7.18961C1.94734 7.17438 1.96054 7.15914 1.97323 7.14543C2.16011 6.93723 2.37644 6.70871 2.61562 6.46598C3.06198 6.01301 3.62261 5.47574 4.32898 4.82523C5.3446 3.89086 6.22616 3.11086 6.9498 2.50707C7.34894 2.17496 7.77195 1.99418 8.17312 1.98352H8.198C9.78339 1.94797 11.3972 1.93273 12.9989 1.93273C14.6005 1.93273 16.2255 1.95102 17.8165 1.98656H17.8236C18.2242 1.99723 18.6462 2.17801 19.0423 2.50809C19.769 3.11035 20.6516 3.89035 21.6662 4.82422C22.3736 5.47574 22.9357 6.0125 23.3816 6.46699C23.6208 6.70973 23.8361 6.93723 24.0225 7.14492C24.0357 7.15914 24.0483 7.17438 24.061 7.1891C24.0289 7.78025 23.9655 8.36929 23.8711 8.95375V8.96594V8.97863C23.8203 9.32648 23.5964 9.69262 23.2582 9.98258C23.2221 10.013 23.182 10.045 23.1353 10.0801L22.983 10.1943C22.7021 10.1913 22.495 10.0801 22.3512 9.85664C22.2426 9.68775 22.0962 9.54643 21.9235 9.44384C21.7509 9.34126 21.5567 9.28022 21.3564 9.26555C21.1332 9.2493 20.9091 9.28454 20.7016 9.36853C20.4941 9.45252 20.3086 9.58303 20.1595 9.75C19.8381 10.1055 19.4125 10.3218 19.0215 10.332C18.8645 10.3387 18.7084 10.3049 18.5683 10.2337C18.4282 10.1625 18.3089 10.0565 18.2217 9.9257C18.1032 9.75689 17.9472 9.61791 17.7658 9.51974C17.5844 9.42157 17.3827 9.36688 17.1766 9.36C16.96 9.35271 16.7446 9.39503 16.5468 9.48375C16.349 9.57247 16.1742 9.70522 16.0356 9.87187C15.7568 10.2055 15.3851 10.3985 15.0159 10.4015H15.0062C14.5375 10.4015 14.2405 10.1024 14.1054 9.92469C13.9774 9.75399 13.8113 9.61553 13.6203 9.52032C13.4294 9.42511 13.2188 9.37578 13.0055 9.37625C12.7923 9.37552 12.582 9.42459 12.3912 9.51954C12.2004 9.6145 12.0345 9.75271 11.9066 9.92316C11.7705 10.1024 11.4729 10.402 11.0037 10.402H10.994C10.6228 10.3985 10.2496 10.204 9.9723 9.86883C9.83341 9.70017 9.65768 9.56563 9.45862 9.47557C9.25957 9.38551 9.0425 9.34232 8.82413 9.34934C8.61692 9.35656 8.41425 9.41201 8.23222 9.51127C8.05019 9.61053 7.89381 9.75086 7.7755 9.92113C7.68876 10.0535 7.56912 10.1612 7.42829 10.2334C7.28747 10.3057 7.13029 10.3402 6.97214 10.3335C6.58112 10.3233 6.15558 10.106 5.83667 9.75406C5.68789 9.58729 5.50288 9.45682 5.29584 9.37267C5.0888 9.28851 4.86524 9.25291 4.6423 9.26859C4.44188 9.28329 4.24763 9.34438 4.0749 9.44706C3.90216 9.54973 3.75566 9.69117 3.64698 9.8602C3.50327 10.0801 3.30015 10.1908 3.01628 10.1943L2.86394 10.0806C2.81671 10.0455 2.77659 10.0136 2.74105 9.98258C2.40234 9.69262 2.1789 9.32648 2.12761 8.97863L2.12507 8.96594ZM3.9603 17.2814C3.9603 15.8976 4.09995 12.8842 4.22183 11.8442C4.43822 11.7375 4.63843 11.6008 4.81648 11.438C5.43245 11.9458 6.17589 12.2393 6.92136 12.2586C7.65402 12.283 8.3674 12.0213 8.91046 11.5289C9.48292 12.031 10.2149 12.3138 10.9762 12.3271H11.0026C11.7415 12.3259 12.454 12.0523 13.0039 11.5588C13.554 12.0521 14.2664 12.3254 15.0052 12.3266H15.0306C15.7881 12.3132 16.5165 12.033 17.0878 11.5355C17.6302 12.0225 18.3396 12.2813 19.0682 12.2581C19.8132 12.2388 20.5556 11.9453 21.1726 11.437C21.3524 11.6004 21.5547 11.7372 21.7733 11.8432C21.8952 12.8863 22.0318 15.894 22.0344 17.2768C22.0344 18.492 21.947 21.5688 21.8536 23.0659C20.1956 23.2461 18.1242 23.4122 16.129 23.499C16.1204 23.5498 16.1117 23.5945 16.1026 23.6377C16.0188 24.0165 15.6512 24.3643 15.2713 24.438C15.0392 24.4842 13.4239 24.5395 12.9963 24.5365C12.5693 24.5416 10.9534 24.4857 10.7218 24.438C10.3415 24.3643 9.97382 24.0165 9.89003 23.6377C9.88089 23.595 9.87226 23.5483 9.86413 23.4995C7.86843 23.4132 5.79655 23.2456 4.13855 23.0659C4.04663 21.5343 3.96335 18.4021 3.9603 17.2814Z" fill="white"/>
</svg>
