<svg width="28" height="27" viewBox="0 0 28 27" fill="none" xmlns="http://www.w3.org/2000/svg">
<path d="M24.6605 0.281395C24.4814 0.102326 24.2384 0 23.9826 0H3.51744C3.26163 0 3.0186 0.102326 2.83953 0.281395L0.281395 2.83953C0.102326 3.0186 0 3.26163 0 3.51744V10.5523C0 12.1576 1.08721 13.5134 2.55814 13.9355V25.9012C2.55814 26.432 2.98663 26.8605 3.51744 26.8605H11.1919H16.3081H23.9826C24.5134 26.8605 24.9419 26.432 24.9419 25.9012V13.9355C26.4128 13.5134 27.5 12.164 27.5 10.5523V3.51744C27.5 3.26163 27.3977 3.0186 27.2186 2.83953L24.6605 0.281395ZM15.3488 24.9419H12.1512V19.8256H15.3488V24.9419ZM23.0233 24.9419H17.2674V18.8663C17.2674 18.3355 16.839 17.907 16.3081 17.907H11.1919C10.661 17.907 10.2326 18.3355 10.2326 18.8663V24.9419H4.47674V13.9355C5.09709 13.7564 5.64709 13.4174 6.07558 12.9634C6.71512 13.6477 7.62326 14.0762 8.63372 14.0762C9.64419 14.0762 10.5523 13.6477 11.1919 12.9634C11.8314 13.6477 12.7395 14.0762 13.75 14.0762C14.7605 14.0762 15.6686 13.6477 16.3081 12.9634C16.9477 13.6477 17.8558 14.0762 18.8663 14.0762C19.8767 14.0762 20.7849 13.6477 21.4244 12.9634C21.8529 13.4174 22.4029 13.7628 23.0233 13.9355V24.9419ZM25.5814 10.5523C25.5814 11.4349 24.8651 12.1512 23.9826 12.1512C23.1 12.1512 22.3837 11.4349 22.3837 10.5523C22.3837 10.0215 21.9552 9.59302 21.4244 9.59302C20.8936 9.59302 20.4651 10.0215 20.4651 10.5523C20.4651 11.4349 19.7488 12.1512 18.8663 12.1512C17.9837 12.1512 17.2674 11.4349 17.2674 10.5523C17.2674 10.0215 16.839 9.59302 16.3081 9.59302C15.7773 9.59302 15.3488 10.0215 15.3488 10.5523C15.3488 11.4349 14.6326 12.1512 13.75 12.1512C12.8674 12.1512 12.1512 11.4349 12.1512 10.5523C12.1512 10.0215 11.7227 9.59302 11.1919 9.59302C10.661 9.59302 10.2326 10.0215 10.2326 10.5523C10.2326 11.4349 9.51628 12.1512 8.63372 12.1512C7.75116 12.1512 7.03488 11.4349 7.03488 10.5523C7.03488 10.0215 6.6064 9.59302 6.07558 9.59302C5.54477 9.59302 5.11628 10.0215 5.11628 10.5523C5.11628 11.4349 4.4 12.1512 3.51744 12.1512C2.63488 12.1512 1.9186 11.4349 1.9186 10.5523V3.91395L3.91395 1.9186H23.586L25.5814 3.91395V10.5523Z" fill="white"/>
</svg>
